<svg xmlns="http://www.w3.org/2000/svg" xmlns:xlink="http://www.w3.org/1999/xlink" width="100" height="50" viewBox="0 0 100 50"><defs><linearGradient id="a"><stop offset="0" style="stop-color:#20c997;stop-opacity:1"/><stop offset=".254" style="stop-color:#20a3b0;stop-opacity:1"/><stop offset=".657" style="stop-color:#bb61bc;stop-opacity:1"/><stop offset="1" style="stop-color:#e7eb25;stop-opacity:1"/></linearGradient><linearGradient xlink:href="#a" id="l" x1="16.026" x2="52.393" y1="51.5" y2="36.155" gradientUnits="userSpaceOnUse"/><linearGradient xlink:href="#a" id="m" x1="16.026" x2="52.393" y1="51.5" y2="36.155" gradientUnits="userSpaceOnUse"/><linearGradient xlink:href="#a" id="n" x1="16.026" x2="52.393" y1="51.5" y2="36.155" gradientUnits="userSpaceOnUse"/><linearGradient xlink:href="#a" id="o" x1="16.026" x2="52.393" y1="51.5" y2="36.155" gradientUnits="userSpaceOnUse"/><linearGradient xlink:href="#a" id="p" x1="16.026" x2="52.393" y1="51.5" y2="36.155" gradientUnits="userSpaceOnUse"/><linearGradient xlink:href="#a" id="q" x1="16.026" x2="52.393" y1="51.5" y2="36.155" gradientUnits="userSpaceOnUse"/><linearGradient xlink:href="#a" id="r" x1="16.026" x2="52.393" y1="51.5" y2="36.155" gradientUnits="userSpaceOnUse"/><linearGradient xlink:href="#a" id="k" x1="16.026" x2="52.393" y1="51.5" y2="36.155" gradientUnits="userSpaceOnUse"/></defs><g style="display:inline"><g aria-label="hawära" style="font-size:7.8px;font-family:&quot;AR PL KaitiM GB&quot;;-inkscape-font-specification:&quot;AR PL KaitiM GB, Normal&quot;;text-align:center;letter-spacing:-.25px;text-anchor:middle;fill:#f6f6f0;stroke-width:.15;paint-order:fill markers stroke;stop-color:#000"><path d="M17.889 50.843q.433-.62.984-1.113.223-.21.492-.41.281-.2.586-.352.317-.164.656-.257.352-.094.715-.094.785 0 1.407.305.62.304 1.042 1.02.422.714.645 1.898.223 1.171.223 2.917 0 1.7-.305 2.954t-.797 2.132-1.113 1.43q-.621.563-1.254.879t-1.219.434q-.586.129-1.008.14l-.117-.48q.528-.13.938-.48.41-.352.691-1.15.281-.808.422-2.167.152-1.36.152-3.504 0-1.477-.14-2.355-.13-.891-.352-1.348-.21-.469-.492-.61-.27-.152-.55-.152-.34 0-.599.188-.257.175-.457.41-.187.234-.328.469-.129.234-.222.351v7.828q0 .153-.047.375-.047.211-.235.41-.175.188-.539.317-.351.14-.972.14t-.985-.152q-.363-.14-.55-.34-.176-.199-.223-.41t-.047-.34V44.61q0-.34-.164-.586-.152-.258-.527-.258-.2 0-.352.07-.14.06-.305.188l-.234-.281q.27-.223.598-.434.328-.222.714-.386.399-.165.844-.27.446-.105.938-.105.761 0 1.183.21.422.2.621.504.2.293.235.633.047.328.047.586zM32.088 54.71q0-.292-.188-.445-.187-.152-.48-.152-.41 0-.785.187-.364.188-.645.551t-.445.903q-.164.527-.164 1.23 0 .68.094 1.125.105.445.27.715.175.258.398.363.222.106.468.106.305 0 .575-.153.27-.164.468-.41.2-.246.317-.55t.117-.61zm-1.863-5.132q-.399 0-.739.094-.34.093-.586.234-.246.14-.386.316-.141.164-.141.317 0 .176.176.258.187.07.41.175.223.094.398.282.188.175.188.55 0 .246-.106.457-.093.2-.27.364-.163.152-.398.246-.222.082-.468.082-.657 0-1.067-.446-.398-.445-.398-1.183 0-.715.375-1.219.375-.515.973-.844.609-.328 1.37-.48.762-.164 1.524-.164.914 0 1.746.2.832.198 1.465.632.645.433 1.02 1.101.386.668.386 1.618v6.62q0 .106.012.235t.059.234.14.176.27.07q.21 0 .386-.152.188-.164.329-.328l.293.246q-.176.246-.422.54-.246.292-.598.55t-.82.434-1.067.175q-.738 0-1.312-.433-.574-.445-.75-1.36-.375.504-.785.844-.399.34-.82.551-.423.21-.856.305-.422.093-.856.093-.562 0-1.09-.175-.527-.176-.949-.551-.41-.387-.668-.996-.246-.61-.246-1.489 0-1.066.422-1.746t1.102-1.136q.691-.47 1.558-.797.88-.328 1.793-.692.68-.27.985-.796.316-.54.316-1.102 0-.867-.516-1.383-.503-.527-1.382-.527M52.791 52.332q0-.774-.105-1.278-.106-.504-.235-.832-.117-.34-.222-.55-.106-.223-.106-.41 0-.176.14-.294t.329-.199q.199-.082.398-.117.211-.035.34-.035.34 0 .492.094.153.093.246.363.106.34.141.902.047.551.047 1.184 0 .902-.106 1.98-.105 1.078-.34 2.168-.222 1.09-.585 2.11-.352 1.02-.856 1.816-.504.785-1.16 1.266-.656.468-1.488.468-.657 0-1.184-.257-.516-.27-.926-.727t-.726-1.066q-.305-.621-.54-1.325-.269.715-.62 1.336-.352.61-.786 1.067-.421.457-.937.715t-1.113.257q-.739 0-1.313-.316-.562-.328-.996-.879-.434-.562-.75-1.3-.316-.739-.55-1.56-.223-.82-.376-1.687-.152-.867-.258-1.676-.105-.808-.175-1.511t-.14-1.219q-.083-.469-.247-.727-.152-.257-.527-.257-.2 0-.34.07t-.305.2l-.246-.294q.27-.222.598-.433.34-.223.726-.387.387-.164.832-.27.446-.105.938-.105.703 0 1.136.246.434.234.68.598.258.351.363.761.106.41.153.739.21 1.77.41 3.117.21 1.347.445 2.262.235.902.504 1.37.281.458.656.458.247 0 .48-.211.235-.211.446-.586t.399-.903q.187-.539.328-1.183-.117-.645-.2-1.278-.081-.632-.152-1.207-.058-.585-.117-1.09-.059-.503-.129-.89-.176-1.102.2-1.652.386-.551 1.534-.551.504 0 .844.094.352.082.574.328.235.234.375.656.141.41.223 1.055.223 1.757.434 3.14.21 1.383.445 2.332.234.95.504 1.453.281.493.656.493.399 0 .738-.493.34-.492.586-1.3.246-.809.375-1.864.141-1.054.141-2.18M61.447 54.71q0-.292-.187-.445-.188-.152-.48-.152-.41 0-.786.187-.363.188-.644.551t-.446.903q-.164.527-.164 1.23 0 .68.094 1.125.105.445.27.715.175.258.398.363.223.106.469.106.304 0 .574-.153.27-.164.469-.41t.316-.55.117-.61zm-1.863-5.132q-.398 0-.738.094-.34.093-.586.234-.246.14-.387.316-.14.164-.14.317 0 .176.175.258.188.07.41.175.223.094.399.282.187.175.187.55 0 .246-.105.457-.094.2-.27.364-.164.152-.398.246-.223.082-.469.082-.656 0-1.066-.446-.399-.445-.399-1.183 0-.715.375-1.219.375-.515.973-.844.61-.328 1.371-.48.762-.164 1.523-.164.915 0 1.747.2.832.198 1.464.632.645.433 1.02 1.101.387.668.387 1.618v6.62q0 .106.011.235.012.129.059.234t.14.176.27.07q.211 0 .387-.152.187-.164.328-.328l.293.246q-.176.246-.422.54-.246.292-.598.55-.351.258-.82.434-.469.175-1.066.175-.739 0-1.313-.433-.574-.445-.75-1.36-.375.504-.785.844-.398.34-.82.551-.422.21-.856.305-.422.093-.855.093-.563 0-1.09-.175-.527-.176-.95-.551-.41-.387-.667-.996-.246-.61-.246-1.489 0-1.066.422-1.746.421-.68 1.101-1.136.691-.47 1.559-.797.879-.328 1.793-.692.68-.27.984-.796.316-.54.316-1.102 0-.867-.515-1.383-.504-.527-1.383-.527m-2.238-4.16q0-.258.093-.48.106-.235.282-.411.175-.176.398-.27.235-.105.492-.105.258 0 .493.105.234.094.41.27t.27.41q.105.223.105.48 0 .27-.106.505-.094.222-.27.398-.175.176-.41.281-.234.094-.492.094-.257 0-.492-.094-.223-.105-.398-.281t-.282-.398q-.093-.235-.093-.504m4.125 0q0-.258.093-.48.106-.235.282-.411.175-.176.398-.27.235-.105.504-.105.258 0 .48.105.235.094.41.27.176.176.27.41.106.223.106.48 0 .27-.106.505-.094.222-.27.398-.175.176-.41.281-.222.094-.48.094-.27 0-.504-.094-.223-.105-.398-.281t-.282-.398q-.093-.235-.093-.504M71.615 51.09q.446-.68.95-1.23.21-.235.456-.458t.504-.398q.27-.176.551-.282t.563-.105q.597 0 .937.363.34.352.34.996 0 .399-.07.774-.059.363-.246.89h-.329q-.07-.363-.328-.597-.257-.246-.75-.246-.363 0-.714.14-.352.13-.692.328-.328.2-.633.434-.293.234-.539.445v7.606q0 .152-.047.363-.047.21-.234.398-.176.188-.54.317-.35.14-.972.14-.62 0-.984-.152-.352-.14-.54-.34-.187-.199-.234-.41-.046-.21-.046-.34V50.68q0-.34-.164-.586-.153-.257-.528-.257-.199 0-.34.07-.14.07-.304.2l-.246-.294q.27-.222.597-.433.34-.223.727-.387t.832-.27.937-.105q.504 0 .856.14.363.13.586.352.234.211.363.48.129.27.187.551.07.27.083.528.011.246.011.422M82.193 54.71q0-.292-.187-.445-.188-.152-.48-.152-.41 0-.786.187-.363.188-.644.551t-.446.903q-.164.527-.164 1.23 0 .68.094 1.125.106.445.27.715.175.258.398.363.223.106.469.106.304 0 .574-.153.27-.164.469-.41t.316-.55.117-.61zm-1.863-5.132q-.398 0-.738.094-.34.093-.586.234-.246.14-.387.316-.14.164-.14.317 0 .176.175.258.188.07.41.175.223.094.399.282.187.175.187.55 0 .246-.105.457-.094.2-.27.364-.164.152-.398.246-.223.082-.469.082-.656 0-1.066-.446-.399-.445-.399-1.183 0-.715.375-1.219.375-.515.973-.844.61-.328 1.371-.48.762-.164 1.524-.164.914 0 1.746.2.832.198 1.464.632.645.433 1.02 1.101.387.668.387 1.618v6.62q0 .106.011.235.012.129.059.234t.14.176.27.07q.211 0 .387-.152.187-.164.328-.328l.293.246q-.176.246-.422.54-.246.292-.598.55-.351.258-.82.434-.469.175-1.066.175-.739 0-1.313-.433-.574-.445-.75-1.36-.375.504-.785.844-.398.34-.82.551-.422.21-.856.305-.422.093-.855.093-.563 0-1.09-.175-.527-.176-.95-.551-.41-.387-.667-.996-.246-.61-.246-1.489 0-1.066.422-1.746.421-.68 1.101-1.136.692-.47 1.559-.797.879-.328 1.793-.692.68-.27.984-.796.317-.54.317-1.102 0-.867-.516-1.383-.504-.527-1.383-.527" style="font-size:24px;font-family:&quot;Berkshire Swash&quot;;-inkscape-font-specification:&quot;Berkshire Swash, Normal&quot;" transform="translate(0 -25)"/></g><g aria-label="estudio" style="font-size:10.2687px;font-family:&quot;Asap VF Beta&quot;;-inkscape-font-specification:&quot;Asap VF Beta, @wght=131.0&quot;;font-variation-settings:&quot;wght&quot;131;text-align:center;text-anchor:middle;display:inline;fill:url(#k);stroke-width:.197476;paint-order:fill markers stroke;stop-color:#000" transform="translate(0 -25)"><path d="M24.172 39.564q.81 0 1.294.37.482.359.698.965.226.605.226 1.314 0 .092-.103.236t-.236.257q-.123.113-.185.113h-2.619q.052.616.36.852.318.226.821.226.329 0 .575-.072.257-.082.421-.164.175-.082.247-.082.113 0 .236.154t.205.339q.093.184.093.287 0 .195-.205.339-.196.134-.504.226t-.616.133-.523.041q-1.397 0-2.044-.739-.637-.75-.637-1.992 0-1.006.319-1.622.318-.627.883-.904t1.294-.277m0 1.201q-.319 0-.575.226-.257.216-.35.811h1.664q0-.441-.185-.74-.174-.297-.554-.297" style="fill:url(#l)"/><path d="M29.09 39.564q.298 0 .658.061.359.052.616.185.267.134.267.35 0 .112-.072.307t-.175.35q-.092.153-.195.153-.082 0-.308-.102-.216-.113-.575-.113-.257 0-.4.082t-.144.277q0 .226.174.36.175.123.442.226.277.092.544.225.226.113.431.288.206.175.329.452.134.277.134.678 0 .523-.237.924-.236.39-.688.616-.441.216-1.088.216-.38 0-.78-.083-.39-.082-.658-.236-.267-.154-.267-.38 0-.133.093-.318.092-.185.215-.329.134-.143.236-.143.083 0 .216.071.144.072.339.144.205.072.483.072.595 0 .595-.431 0-.298-.267-.421t-.616-.257q-.257-.092-.524-.257-.267-.164-.462-.462-.185-.308-.185-.821 0-.534.226-.904.237-.38.658-.575.42-.205.985-.205" style="fill:url(#m)"/><path d="M32.818 38.342q.513 0 .513.328v.976h.504q.308 0 .308.513v.175q0 .513-.308.513h-.504v2.609q0 .225.083.338.092.103.287.103.072 0 .154-.02.082-.021.123-.021.103 0 .175.175.072.164.103.349.04.174.04.215 0 .237-.184.35-.175.102-.411.123-.236.03-.39.03-.36 0-.647-.092-.277-.103-.472-.308-.185-.205-.288-.513-.092-.319-.092-.75v-2.588h-.165q-.308 0-.308-.513v-.175q0-.513.308-.513h.165l.133-.976q.051-.328.555-.328z" style="fill:url(#n)"/><path d="M39 39.625q.616 0 .616.329v3.255q0 .534.03.822.031.277.062.42.031.134.031.247 0 .092-.144.154-.133.062-.339.103-.195.04-.39.061-.185.01-.277.01-.164 0-.247-.112-.071-.124-.102-.288t-.062-.308q-.226.288-.626.534t-.904.247q-.77 0-1.14-.401-.37-.41-.37-1.263v-3.481q0-.329.617-.329h.287q.616 0 .616.329v3.255q0 .298.134.472.144.165.483.165.318 0 .523-.206.206-.215.298-.39v-3.296q0-.329.616-.329z" style="fill:url(#o)"/><path d="M44.801 37.274q.617 0 .617.328v5.607q0 .534.03.822.031.277.062.42.03.134.03.247 0 .092-.143.154-.133.062-.339.103-.195.04-.39.061-.185.01-.277.01-.165 0-.247-.112-.072-.124-.102-.288-.031-.164-.062-.298-.175.329-.534.555-.36.216-.842.216-.555 0-.996-.319-.431-.318-.678-.934-.246-.627-.246-1.52 0-1.253.565-2.002.564-.76 1.601-.76.36 0 .617.102.267.103.43.216v-2.28q0-.328.617-.328zm-1.622 3.491q-.483 0-.719.4-.236.39-.236 1.161 0 .75.205 1.14.206.39.627.39.298 0 .503-.185t.339-.42v-2.29q-.123-.073-.308-.134-.175-.062-.411-.062" style="fill:url(#p)"/><path d="M47.564 39.625q.616 0 .616.329v4.754q0 .329-.616.329h-.288q-.616 0-.616-.329v-4.754q0-.329.616-.329zm0-2.351q.616 0 .616.328v.832q0 .329-.616.329h-.288q-.616 0-.616-.329v-.832q0-.328.616-.328z" style="fill:url(#q)"/><path d="M51.702 39.564q1.222 0 1.848.718.637.709.637 2.044t-.637 2.054q-.626.719-1.848.719t-1.859-.72-.636-2.053.636-2.044q.637-.718 1.86-.718m0 1.201q-.493 0-.729.4-.226.39-.226 1.161 0 .77.226 1.17.236.401.73.401.492 0 .718-.4t.226-1.171-.226-1.16q-.226-.4-.719-.4" style="fill:url(#r)"/></g></g></svg>