<?xml version="1.0" encoding="UTF-8" standalone="no"?>
<svg
   viewBox="18 -7 399.99999 100"
   version="1.1"
   id="svg17"
   sodipodi:docname="carloscapote-logo.svg"
   inkscape:version="1.4.2 (ebf0e940d0, 2025-05-08)"
   width="400"
   height="100"
   inkscape:export-filename="export/carloscapote-logo.oscuro.png"
   inkscape:export-xdpi="192"
   inkscape:export-ydpi="192"
   xmlns:inkscape="http://www.inkscape.org/namespaces/inkscape"
   xmlns:sodipodi="http://sodipodi.sourceforge.net/DTD/sodipodi-0.dtd"
   xmlns="http://www.w3.org/2000/svg"
   xmlns:svg="http://www.w3.org/2000/svg">
  <defs
     id="defs17" />
  <sodipodi:namedview
     id="namedview17"
     pagecolor="#ffffff"
     bordercolor="#000000"
     borderopacity="0.25"
     inkscape:showpageshadow="2"
     inkscape:pageopacity="0.0"
     inkscape:pagecheckerboard="0"
     inkscape:deskcolor="#d1d1d1"
     inkscape:zoom="1.6144137"
     inkscape:cx="141.53746"
     inkscape:cy="96.01009"
     inkscape:window-width="1920"
     inkscape:window-height="1011"
     inkscape:window-x="0"
     inkscape:window-y="0"
     inkscape:window-maximized="1"
     inkscape:current-layer="g32" />
  <!-- SVG created with Arrow, by QuiverAI (https://quiver.ai) -->
  <style
     type="text/css"
     id="style1">.cls-0 {fill:#2D2C2E;}</style>
  <g
     inkscape:groupmode="layer"
     id="layer1"
     inkscape:label="light-mode"
     style="display:inline">
    <path
       class="cls-0"
       d="m 84.791231,49.385289 c -3.236712,3.236712 -7.177057,6.473424 -11.961761,6.473424 -9.147229,0 -6.332697,-12.524667 -2.955259,-17.450098 1.407266,-2.392353 4.221798,-5.910517 7.177057,-5.910517 2.955258,0 5.041755,3.095031 0.703633,7.036329 0,0 -1.045712,1.194942 -2.342479,-0.367699 -1.225869,-1.477208 3.104302,-0.35674 1.961293,-3.536443 -1.689634,-4.700386 -14.535834,16.991716 -6.655144,16.991716 5.206884,0 11.258128,-6.051244 14.07266,-9.287955 2.110898,-2.814532 3.377438,2.110898 0,6.051243 z"
       id="path1"
       sodipodi:nodetypes="cscssssscc"
       style="stroke-width:1.40727" />
    <path
       class="cls-0"
       d="m 106.3224,50.651829 c -1.82945,1.688719 -3.09599,2.533078 -6.05124,2.533078 -2.814536,-0.703633 -4.221802,-2.955258 -3.940348,-8.021416 -2.110899,2.673806 -4.503252,8.443596 -8.584323,8.443596 -4.081071,0 -3.799618,-6.895603 -2.110899,-10.413768 1.688719,-3.658892 4.784704,-9.287956 8.725049,-9.991589 3.095985,-0.422179 3.658892,1.547993 4.503251,2.110899 l 0.42218,-0.422179 c 1.54799,-0.985087 3.23671,0.281453 -0.42218,8.865775 -0.844359,7.03633 0.84436,10.695222 7.73996,1.407266 2.67381,-3.799618 5.48834,-7.177056 4.78471,-3.377438 -1.40727,3.658891 -5.06616,8.865776 -5.06616,8.865776 z M 94.782819,35.171903 c -4.081071,-0.42218 -10.695221,15.057746 -7.177057,15.057746 2.251626,-0.281453 7.177057,-8.865776 8.30287,-11.539581 0.703633,-0.703633 -1.407266,-1.829446 -1.125813,-3.518165 z"
       id="path2"
       style="stroke-width:1.40727" />
    <path
       class="cls-0"
       d="m 116.45471,53.607087 c -3.79961,-2.814532 -0.84436,-9.147229 0.56291,-12.946847 h -4.08107 l -3.37744,5.629064 c -7.52146,11.280239 -4.08107,0.84436 -2.1109,-1.970172 l 2.39235,-4.221798 -0.98508,-1.970173 c -2.39235,-6.051243 4.7847,-11.398854 6.61415,-7.036329 1.12581,1.829445 -0.56291,4.362524 -1.26654,6.332696 l 2.39235,-0.703633 c 2.81453,-0.703633 4.2218,1.970173 2.81453,4.221798 -5.91051,10.695222 -2.6738,14.213387 2.53308,9.006503 l 5.91052,-7.177057 c 3.37744,0.140727 0.5629,3.658892 -2.39235,7.177057 -2.95526,3.518165 -6.75488,4.92543 -9.00651,3.658891 z m -5.06615,-19.701724 v 1.68872 h 0.14072 l 1.26654,-3.658892 c -0.5629,-0.703633 -1.54799,0.703633 -1.40726,1.970172 z"
       id="path3"
       sodipodi:nodetypes="cccccccccccccscccccc"
       style="stroke-width:1.40727" />
    <path
       class="cls-0"
       d="m 134.04554,55.014353 c -8.72505,-1.829446 -6.3327,-22.375529 0.28145,-37.855455 1.82945,-3.799618 3.79962,-7.1770563 6.19197,-7.8806893 9.14723,-1.6887191 1.68872,17.1686453 -5.06616,27.4416863 l -4.36252,5.629064 c -0.56291,14.07266 6.19197,12.243214 12.10249,2.673806 l 2.39235,-2.673806 c 2.53308,0 -1.26654,5.206884 -3.65889,8.30287 -1.82945,2.533078 -4.50325,4.362524 -7.88069,4.362524 z m -2.95526,-18.857364 c 5.34761,-7.03633 10.55449,-19.138817 10.55449,-24.767881 0,-4.643978 -7.73996,10.132315 -10.55449,24.767881 z"
       id="path4"
       style="stroke-width:1.40727" />
    <path
       class="cls-0"
       d="m 157.68761,41.786053 c -0.98509,4.784704 -4.78471,11.398854 -10.13232,11.398854 -8.02141,0.281454 -4.7847,-17.872278 1.40727,-19.983177 h 0.98508 c 1.548,-3.518164 8.16215,-3.377438 8.02142,4.925431 2.25163,0 4.2218,-0.703633 6.8956,-2.533078 l 1.82945,1.125812 c -2.53308,3.518165 -7.03633,4.925431 -9.0065,5.066158 z m -8.02142,-5.206884 c -2.95526,1.125813 -6.3327,12.665394 -1.68872,12.946847 2.95526,0 6.05125,-4.925431 7.17706,-8.584323 -2.25163,-0.422179 -4.78471,-2.110899 -5.48834,-4.362524 z m 5.20689,1.547992 c 0.84435,-2.110899 -0.42218,-5.76979 -1.82945,-4.221798 -0.98509,1.547993 0.28145,3.799619 1.82945,4.221798 z"
       id="path5"
       style="stroke-width:1.40727" />
    <path
       class="cls-0"
       d="m 174.99698,45.022765 c 0.70363,2.110899 1.26654,4.503251 -0.84436,6.754876 -1.97017,2.673806 -10.5545,6.051244 -13.36903,2.673806 -2.6738,-4.503251 5.62907,-8.725049 9.14723,-11.258128 l -3.51816,-5.488337 c -4.64398,-5.769791 4.7847,-10.695222 5.62906,-9.428682 0.84436,0.844359 1.40727,2.251625 0.14073,2.392352 -7.31779,2.533078 -2.25163,6.61415 0.5629,10.976674 l 9.42868,-4.362524 c 3.94035,-0.985086 3.37744,1.407266 1.26654,2.251625 z m -3.65889,5.206884 c 0.5629,-0.985086 0,-3.518165 -0.42218,-3.799618 -1.12582,0.422179 -9.56941,5.629064 -6.75488,6.754876 1.54799,0.42218 6.47342,-1.407266 7.17706,-2.955258 z"
       id="path6"
       style="stroke-width:1.40727" />
    <path
       class="cls-0"
       d="m 196.52815,49.385289 c -3.23671,3.095985 -7.31779,4.221798 -10.41377,4.221798 -8.72505,-0.562906 -5.76979,-14.07266 -0.56291,-19.560997 6.18492,-5.717899 8.06939,-0.03584 7.73997,2.673805 -0.0625,0.514339 -1.1257,0.440924 -1.548,0.140727 -0.77571,-0.551432 0.23388,-2.542993 -0.69026,-2.770538 -3.63866,-0.895915 -4.79807,1.222545 -7.47188,8.399602 -3.65889,13.931933 11.25813,6.332697 16.60574,-1.970172 2.53308,-2.392353 2.95526,0 1.26654,2.392352 z"
       id="path7"
       sodipodi:nodetypes="cccaaacccc"
       style="stroke-width:1.40727" />
    <path
       class="cls-0"
       d="m 218.4815,50.651829 c -1.97018,1.688719 -3.37744,2.392352 -5.48834,2.110899 -2.81453,-0.562907 -3.51817,-3.518165 -3.09599,-7.599237 -2.11089,2.673806 -4.64397,8.021416 -9.0065,8.443596 -6.33269,0 -3.51816,-17.027918 5.20689,-20.546083 2.53308,-1.125813 4.64397,0 5.34761,1.829446 1.54799,-1.407266 4.08107,0 2.25162,3.236711 -3.65889,11.117402 -0.14072,16.324286 7.03633,5.206885 2.81453,-3.518165 4.64398,-3.518165 1.40727,1.829445 z m -9.85086,-15.902106 c -4.78243,2.541282 -10.5545,14.776293 -6.75488,14.776293 1.97017,-0.84436 6.75488,-6.895603 8.30287,-11.398855 l 0.5629,-0.703633 c 0,0 -0.50717,-1.972232 -1.26654,-2.533078 -0.22952,-0.169518 -0.59238,-0.274618 -0.84435,-0.140727 z"
       id="path8"
       sodipodi:nodetypes="ccccccccccacccaa"
       style="stroke-width:1.40727" />
    <path
       class="cls-0"
       d="m 222.44069,59.688225 c -0.41844,2.962565 -1.84829,17.279477 -5.92937,17.138751 -7.31778,0 0,-18.998091 4.78471,-28.708226 l 2.1109,-6.332697 c 0,-1.407266 0,-0.985086 0.14072,-1.407266 0.70364,-2.814532 0.28146,-6.473424 0.70364,-8.584322 0.70363,-1.125813 2.53308,-0.703633 2.53308,0.985086 l -0.56291,6.051243 c 3.37744,-4.362524 6.19197,-7.036329 9.14723,-7.036329 8.30287,0.281453 3.65889,17.027918 -3.94035,18.99809 -3.23671,0.985086 -6.61415,-0.140726 -5.20688,-2.110899 l 0.84436,-0.703633 c 4.92543,3.658892 11.1174,-9.006502 8.16214,-12.80612 -2.53308,-3.236712 -9.56941,7.177056 -10.55449,10.835948 l -1.97018,11.821034 z m -1.14466,-8.754943 c -3.37744,7.458509 -6.47342,16.746465 -6.47342,22.234802 0,5.629064 4.50325,-8.302869 6.47342,-22.516255 z"
       id="path9"
       sodipodi:nodetypes="sccccccccccccccscscc"
       style="stroke-width:1.40727" />
    <path
       class="cls-0"
       d="m 256.6184,42.348959 c -0.84435,4.221798 -4.50325,10.695222 -9.42868,10.695222 -8.16214,0.703633 -5.48833,-16.465012 0.84436,-19.138818 h 0.84436 c 1.26654,-3.377438 8.30287,-3.658891 8.16214,5.066158 3.09599,0 5.06616,-1.688719 6.61415,-2.673805 1.97018,0.422179 1.12582,2.392352 -0.28145,3.377438 -1.97017,1.407266 -4.64398,2.110899 -6.75488,2.110899 z m -7.88068,-5.76979 c -2.81454,0.844359 -5.7698,12.243214 -1.40727,12.80612 2.95526,-0.140726 5.76979,-4.784704 6.8956,-8.443596 -2.53308,-0.422179 -4.92543,-1.970172 -5.48833,-4.362524 z m 5.48833,1.547992 c 0,-3.377438 -1.26654,-4.643977 -2.1109,-3.518165 -1.12581,1.547993 0.70364,3.377439 2.1109,3.518165 z"
       id="path10"
       style="stroke-width:1.40727" />
    <path
       class="cls-0"
       d="m 283.07501,24.054502 c -4.78471,-0.140727 -7.73997,0.281453 -12.52467,0.562906 -1.97017,6.473424 -9.99159,27.72314 -2.81453,27.72314 2.53307,0 6.8956,-5.206884 7.73996,-5.769791 l 1.26654,1.547993 c -2.67381,3.236712 -5.34761,6.051244 -9.14723,6.332697 -7.03633,0.422179 -4.92543,-11.258128 -3.51817,-17.872278 l 2.95526,-11.117401 -6.8956,0.703633 c -2.95526,0 -2.95526,-2.673806 0,-2.814532 l 7.73996,-0.703633 4.2218,-11.258128 c 0.70363,-1.9701727 3.51817,-0.703633 2.67381,1.407266 l -2.95526,9.147229 c 4.36252,-0.42218 13.65048,-1.26654 14.07266,0.140726 0.84436,1.26654 -0.56291,2.533079 -2.81453,1.970173 z"
       id="path11"
       style="stroke-width:1.40727" />
    <path
       class="cls-0"
       d="m 286.7339,50.792555 c -3.73969,2.307791 -11.96176,3.658892 -12.6654,-3.658891 -0.5629,-6.332697 6.3327,-18.013005 11.25813,-15.339199 2.95526,1.970172 1.97017,8.443595 -7.59924,14.776292 0,5.769791 8.30287,5.066158 13.93194,-4.362524 2.1109,-3.377439 3.89492,-1.616138 0.84436,2.814532 0,0 -3.08137,4.110738 -5.76979,5.76979 z m -9.14723,-7.599236 c 3.37744,-1.688719 7.88069,-8.021416 6.19197,-9.428682 -1.82945,-0.562907 -6.05125,7.177056 -6.19197,9.428682 z"
       id="path12"
       sodipodi:nodetypes="scccccsccc"
       style="stroke-width:1.40727" />
    <path
       class="cls-0"
       d="m 295.88113,49.244563 c 1.40726,-1.829446 4.92543,-0.42218 3.51816,2.392352 -0.56291,1.547992 -4.36252,2.110899 -4.7847,-0.281453 0,-0.562907 0.14072,-1.68872 1.26654,-2.110899 z"
       id="path13"
       style="stroke-width:1.40727" />
    <path
       class="cls-0"
       d="m 319.94537,49.385289 c -2.70361,2.40069 -5.76979,4.221798 -9.99158,4.221798 -9.14723,-0.562906 -5.62907,-14.635566 1.26653,-20.546083 5.06616,-4.081071 6.54862,2.283255 5.62907,4.503251 -0.16255,0.392443 -0.95596,0.149049 -1.26654,-0.140727 -0.73554,-0.686239 1.21697,-2.762183 -0.54019,-2.9691 -3.07629,-0.362253 -9.16995,3.81346 -8.60704,12.257056 0.14073,6.754877 9.14723,3.940345 16.88719,-5.910517 2.1109,-1.970173 3.37744,0.703633 0,4.221798 0,0 -1.83825,2.9958 -3.37744,4.362524 z"
       id="path14"
       sodipodi:nodetypes="sccaascccs"
       style="stroke-width:1.40727" />
    <path
       class="cls-0"
       d="m 337.25475,42.348959 c -1.12582,4.221798 -4.78471,10.695222 -9.56941,10.695222 -8.58433,0.42218 -4.36253,-17.590825 1.12581,-19.138818 h 0.84436 c 1.26654,-3.236711 7.73996,-3.658891 8.44359,4.081072 v 0.844359 c 2.81454,0 5.48834,-1.407266 6.47343,-2.533078 4.2218,0.985086 -0.98509,5.488337 -7.17706,5.488337 z m -8.30287,-5.629064 c -2.25163,1.26654 -5.76979,13.509754 -0.84436,13.228301 2.25162,0 5.20688,-4.221798 6.33269,-7.739963 -2.81453,-0.42218 -4.92543,-1.970173 -5.48833,-5.488338 z m 5.62906,1.407266 c 0.56291,-1.970172 -0.84436,-5.34761 -2.1109,-4.081071 -1.40727,1.266539 0,4.081071 2.1109,4.081071 z"
       id="path15"
       style="stroke-width:1.40727" />
    <path
       class="cls-0"
       d="m 367.65169,50.651829 c -2.42455,2.145108 -5.48834,-1.970173 -4.08107,-10.835948 0.70363,-4.362525 -4.92543,5.34761 -7.03633,9.428682 -0.98509,1.688719 -3.09599,1.407266 -2.95526,-1.125813 0.84436,-3.799618 3.51817,-17.027918 -0.14073,-12.243214 -4.08107,4.362524 -7.45851,12.243214 -9.0065,15.479926 -0.84436,2.251625 -3.51816,1.407266 -2.81453,-0.703633 l 4.08107,-18.716638 c 0.28145,-2.110899 3.65889,-1.547992 2.81453,1.266539 l -2.53308,9.287956 c 1.82945,-3.518165 6.19197,-12.102487 9.85087,-12.102487 4.7847,0.140726 2.81453,7.036329 2.81453,9.428682 2.53308,-4.362525 4.7847,-6.754877 7.03633,-5.769791 4.08107,1.407266 -1.40727,11.821034 1.97017,13.2283 1.40727,-1.266539 2.25163,0.703633 1.26654,2.110899 0,0 -0.32682,0.428914 -0.51533,0.620692 -0.23148,0.235504 -0.75121,0.645848 -0.75121,0.645848 z"
       id="path16"
       sodipodi:nodetypes="cccccccccccccccac"
       style="stroke-width:1.40727" />
  </g>
  <g
     inkscape:groupmode="layer"
     id="g32"
     inkscape:label="dark-mode"
     style="display:none">
    <path
       class="cls-0"
       d="m 84.791231,49.385289 c -3.236712,3.236712 -7.177057,6.473424 -11.961761,6.473424 -9.147229,0 -6.332697,-12.524667 -2.955259,-17.450098 1.407266,-2.392353 4.221798,-5.910517 7.177057,-5.910517 2.955258,0 5.041755,3.095031 0.703633,7.036329 0,0 -1.045712,1.194942 -2.342479,-0.367699 -1.225869,-1.477208 3.104302,-0.35674 1.961293,-3.536443 -1.689634,-4.700386 -14.535834,16.991716 -6.655144,16.991716 5.206884,0 11.258128,-6.051244 14.07266,-9.287955 2.110898,-2.814532 3.377438,2.110898 0,6.051243 z"
       id="path17"
       sodipodi:nodetypes="cscssssscc"
       style="fill:#ffffff;stroke-width:1.40727" />
    <path
       class="cls-0"
       d="m 106.3224,50.651829 c -1.82945,1.688719 -3.09599,2.533078 -6.05124,2.533078 -2.814536,-0.703633 -4.221802,-2.955258 -3.940348,-8.021416 -2.110899,2.673806 -4.503252,8.443596 -8.584323,8.443596 -4.081071,0 -3.799618,-6.895603 -2.110899,-10.413768 1.688719,-3.658892 4.784704,-9.287956 8.725049,-9.991589 3.095985,-0.422179 3.658892,1.547993 4.503251,2.110899 l 0.42218,-0.422179 c 1.54799,-0.985087 3.23671,0.281453 -0.42218,8.865775 -0.844359,7.03633 0.84436,10.695222 7.73996,1.407266 2.67381,-3.799618 5.48834,-7.177056 4.78471,-3.377438 -1.40727,3.658891 -5.06616,8.865776 -5.06616,8.865776 z M 94.782819,35.171903 c -4.081071,-0.42218 -10.695221,15.057746 -7.177057,15.057746 2.251626,-0.281453 7.177057,-8.865776 8.30287,-11.539581 0.703633,-0.703633 -1.407266,-1.829446 -1.125813,-3.518165 z"
       id="path18"
       style="fill:#ffffff;stroke-width:1.40727" />
    <path
       class="cls-0"
       d="m 116.45471,53.607087 c -3.79961,-2.814532 -0.84436,-9.147229 0.56291,-12.946847 h -4.08107 l -3.37744,5.629064 c -7.52146,11.280239 -4.08107,0.84436 -2.1109,-1.970172 l 2.39235,-4.221798 -0.98508,-1.970173 c -2.39235,-6.051243 4.7847,-11.398854 6.61415,-7.036329 1.12581,1.829445 -0.56291,4.362524 -1.26654,6.332696 l 2.39235,-0.703633 c 2.81453,-0.703633 4.2218,1.970173 2.81453,4.221798 -5.91051,10.695222 -2.6738,14.213387 2.53308,9.006503 l 5.91052,-7.177057 c 3.37744,0.140727 0.5629,3.658892 -2.39235,7.177057 -2.95526,3.518165 -6.75488,4.92543 -9.00651,3.658891 z m -5.06615,-19.701724 v 1.68872 h 0.14072 l 1.26654,-3.658892 c -0.5629,-0.703633 -1.54799,0.703633 -1.40726,1.970172 z"
       id="path19"
       sodipodi:nodetypes="cccccccccccccscccccc"
       style="fill:#ffffff;stroke-width:1.40727" />
    <path
       class="cls-0"
       d="m 134.04554,55.014353 c -8.72505,-1.829446 -6.3327,-22.375529 0.28145,-37.855455 1.82945,-3.799618 3.79962,-7.1770563 6.19197,-7.8806893 9.14723,-1.6887191 1.68872,17.1686453 -5.06616,27.4416863 l -4.36252,5.629064 c -0.56291,14.07266 6.19197,12.243214 12.10249,2.673806 l 2.39235,-2.673806 c 2.53308,0 -1.26654,5.206884 -3.65889,8.30287 -1.82945,2.533078 -4.50325,4.362524 -7.88069,4.362524 z m -2.95526,-18.857364 c 5.34761,-7.03633 10.55449,-19.138817 10.55449,-24.767881 0,-4.643978 -7.73996,10.132315 -10.55449,24.767881 z"
       id="path20"
       style="fill:#ffffff;stroke-width:1.40727" />
    <path
       class="cls-0"
       d="m 157.68761,41.786053 c -0.98509,4.784704 -4.78471,11.398854 -10.13232,11.398854 -8.02141,0.281454 -4.7847,-17.872278 1.40727,-19.983177 h 0.98508 c 1.548,-3.518164 8.16215,-3.377438 8.02142,4.925431 2.25163,0 4.2218,-0.703633 6.8956,-2.533078 l 1.82945,1.125812 c -2.53308,3.518165 -7.03633,4.925431 -9.0065,5.066158 z m -8.02142,-5.206884 c -2.95526,1.125813 -6.3327,12.665394 -1.68872,12.946847 2.95526,0 6.05125,-4.925431 7.17706,-8.584323 -2.25163,-0.422179 -4.78471,-2.110899 -5.48834,-4.362524 z m 5.20689,1.547992 c 0.84435,-2.110899 -0.42218,-5.76979 -1.82945,-4.221798 -0.98509,1.547993 0.28145,3.799619 1.82945,4.221798 z"
       id="path21"
       style="fill:#ffffff;stroke-width:1.40727" />
    <path
       class="cls-0"
       d="m 174.99698,45.022765 c 0.70363,2.110899 1.26654,4.503251 -0.84436,6.754876 -1.97017,2.673806 -10.5545,6.051244 -13.36903,2.673806 -2.6738,-4.503251 5.62907,-8.725049 9.14723,-11.258128 l -3.51816,-5.488337 c -4.64398,-5.769791 4.7847,-10.695222 5.62906,-9.428682 0.84436,0.844359 1.40727,2.251625 0.14073,2.392352 -7.31779,2.533078 -2.25163,6.61415 0.5629,10.976674 l 9.42868,-4.362524 c 3.94035,-0.985086 3.37744,1.407266 1.26654,2.251625 z m -3.65889,5.206884 c 0.5629,-0.985086 0,-3.518165 -0.42218,-3.799618 -1.12582,0.422179 -9.56941,5.629064 -6.75488,6.754876 1.54799,0.42218 6.47342,-1.407266 7.17706,-2.955258 z"
       id="path22"
       style="fill:#ffffff;stroke-width:1.40727" />
    <path
       class="cls-0"
       d="m 196.52815,49.385289 c -3.23671,3.095985 -7.31779,4.221798 -10.41377,4.221798 -8.72505,-0.562906 -5.76979,-14.07266 -0.56291,-19.560997 6.18492,-5.717899 8.06939,-0.03584 7.73997,2.673805 -0.0625,0.514339 -1.1257,0.440924 -1.548,0.140727 -0.77571,-0.551432 0.23388,-2.542993 -0.69026,-2.770538 -3.63866,-0.895915 -4.79807,1.222545 -7.47188,8.399602 -3.65889,13.931933 11.25813,6.332697 16.60574,-1.970172 2.53308,-2.392353 2.95526,0 1.26654,2.392352 z"
       id="path23"
       sodipodi:nodetypes="cccaaacccc"
       style="fill:#ffffff;stroke-width:1.40727" />
    <path
       class="cls-0"
       d="m 218.4815,50.651829 c -1.97018,1.688719 -3.37744,2.392352 -5.48834,2.110899 -2.81453,-0.562907 -3.51817,-3.518165 -3.09599,-7.599237 -2.11089,2.673806 -4.64397,8.021416 -9.0065,8.443596 -6.33269,0 -3.51816,-17.027918 5.20689,-20.546083 2.53308,-1.125813 4.64397,0 5.34761,1.829446 1.54799,-1.407266 4.08107,0 2.25162,3.236711 -3.65889,11.117402 -0.14072,16.324286 7.03633,5.206885 2.81453,-3.518165 4.64398,-3.518165 1.40727,1.829445 z m -9.85086,-15.902106 c -4.78243,2.541282 -10.5545,14.776293 -6.75488,14.776293 1.97017,-0.84436 6.75488,-6.895603 8.30287,-11.398855 l 0.5629,-0.703633 c 0,0 -0.50717,-1.972232 -1.26654,-2.533078 -0.22952,-0.169518 -0.59238,-0.274618 -0.84435,-0.140727 z"
       id="path24"
       sodipodi:nodetypes="ccccccccccacccaa"
       style="fill:#ffffff;stroke-width:1.40727" />
    <path
       class="cls-0"
       d="m 222.44069,59.688225 c -0.41844,2.962565 -1.84829,17.279477 -5.92937,17.138751 -7.31778,0 0,-18.998091 4.78471,-28.708226 l 2.1109,-6.332697 c 0,-1.407266 0,-0.985086 0.14072,-1.407266 0.70364,-2.814532 0.28146,-6.473424 0.70364,-8.584322 0.70363,-1.125813 2.53308,-0.703633 2.53308,0.985086 l -0.56291,6.051243 c 3.37744,-4.362524 6.19197,-7.036329 9.14723,-7.036329 8.30287,0.281453 3.65889,17.027918 -3.94035,18.99809 -3.23671,0.985086 -6.61415,-0.140726 -5.20688,-2.110899 l 0.84436,-0.703633 c 4.92543,3.658892 11.1174,-9.006502 8.16214,-12.80612 -2.53308,-3.236712 -9.56941,7.177056 -10.55449,10.835948 l -1.97018,11.821034 z m -1.14466,-8.754943 c -3.37744,7.458509 -6.47342,16.746465 -6.47342,22.234802 0,5.629064 4.50325,-8.302869 6.47342,-22.516255 z"
       id="path25"
       sodipodi:nodetypes="sccccccccccccccscscc"
       style="fill:#ffffff;stroke-width:1.40727" />
    <path
       class="cls-0"
       d="m 256.6184,42.348959 c -0.84435,4.221798 -4.50325,10.695222 -9.42868,10.695222 -8.16214,0.703633 -5.48833,-16.465012 0.84436,-19.138818 h 0.84436 c 1.26654,-3.377438 8.30287,-3.658891 8.16214,5.066158 3.09599,0 5.06616,-1.688719 6.61415,-2.673805 1.97018,0.422179 1.12582,2.392352 -0.28145,3.377438 -1.97017,1.407266 -4.64398,2.110899 -6.75488,2.110899 z m -7.88068,-5.76979 c -2.81454,0.844359 -5.7698,12.243214 -1.40727,12.80612 2.95526,-0.140726 5.76979,-4.784704 6.8956,-8.443596 -2.53308,-0.422179 -4.92543,-1.970172 -5.48833,-4.362524 z m 5.48833,1.547992 c 0,-3.377438 -1.26654,-4.643977 -2.1109,-3.518165 -1.12581,1.547993 0.70364,3.377439 2.1109,3.518165 z"
       id="path26"
       style="fill:#ffffff;stroke-width:1.40727" />
    <path
       class="cls-0"
       d="m 283.07501,24.054502 c -4.78471,-0.140727 -7.73997,0.281453 -12.52467,0.562906 -1.97017,6.473424 -9.99159,27.72314 -2.81453,27.72314 2.53307,0 6.8956,-5.206884 7.73996,-5.769791 l 1.26654,1.547993 c -2.67381,3.236712 -5.34761,6.051244 -9.14723,6.332697 -7.03633,0.422179 -4.92543,-11.258128 -3.51817,-17.872278 l 2.95526,-11.117401 -6.8956,0.703633 c -2.95526,0 -2.95526,-2.673806 0,-2.814532 l 7.73996,-0.703633 4.2218,-11.258128 c 0.70363,-1.9701727 3.51817,-0.703633 2.67381,1.407266 l -2.95526,9.147229 c 4.36252,-0.42218 13.65048,-1.26654 14.07266,0.140726 0.84436,1.26654 -0.56291,2.533079 -2.81453,1.970173 z"
       id="path27"
       style="fill:#ffffff;stroke-width:1.40727" />
    <path
       class="cls-0"
       d="m 286.7339,50.792555 c -3.73969,2.307791 -11.96176,3.658892 -12.6654,-3.658891 -0.5629,-6.332697 6.3327,-18.013005 11.25813,-15.339199 2.95526,1.970172 1.97017,8.443595 -7.59924,14.776292 0,5.769791 8.30287,5.066158 13.93194,-4.362524 2.1109,-3.377439 3.89492,-1.616138 0.84436,2.814532 0,0 -3.08137,4.110738 -5.76979,5.76979 z m -9.14723,-7.599236 c 3.37744,-1.688719 7.88069,-8.021416 6.19197,-9.428682 -1.82945,-0.562907 -6.05125,7.177056 -6.19197,9.428682 z"
       id="path28"
       sodipodi:nodetypes="scccccsccc"
       style="fill:#ffffff;stroke-width:1.40727" />
    <path
       class="cls-0"
       d="m 295.88113,49.244563 c 1.40726,-1.829446 4.92543,-0.42218 3.51816,2.392352 -0.56291,1.547992 -4.36252,2.110899 -4.7847,-0.281453 0,-0.562907 0.14072,-1.68872 1.26654,-2.110899 z"
       id="path29"
       style="fill:#ffffff;stroke-width:1.40727" />
    <path
       class="cls-0"
       d="m 319.94537,49.385289 c -2.70361,2.40069 -5.76979,4.221798 -9.99158,4.221798 -9.14723,-0.562906 -5.62907,-14.635566 1.26653,-20.546083 5.06616,-4.081071 6.54862,2.283255 5.62907,4.503251 -0.16255,0.392443 -0.95596,0.149049 -1.26654,-0.140727 -0.73554,-0.686239 1.21697,-2.762183 -0.54019,-2.9691 -3.07629,-0.362253 -9.16995,3.81346 -8.60704,12.257056 0.14073,6.754877 9.14723,3.940345 16.88719,-5.910517 2.1109,-1.970173 3.37744,0.703633 0,4.221798 0,0 -1.83825,2.9958 -3.37744,4.362524 z"
       id="path30"
       sodipodi:nodetypes="sccaascccs"
       style="fill:#ffffff;stroke-width:1.40727" />
    <path
       class="cls-0"
       d="m 337.25475,42.348959 c -1.12582,4.221798 -4.78471,10.695222 -9.56941,10.695222 -8.58433,0.42218 -4.36253,-17.590825 1.12581,-19.138818 h 0.84436 c 1.26654,-3.236711 7.73996,-3.658891 8.44359,4.081072 v 0.844359 c 2.81454,0 5.48834,-1.407266 6.47343,-2.533078 4.2218,0.985086 -0.98509,5.488337 -7.17706,5.488337 z m -8.30287,-5.629064 c -2.25163,1.26654 -5.76979,13.509754 -0.84436,13.228301 2.25162,0 5.20688,-4.221798 6.33269,-7.739963 -2.81453,-0.42218 -4.92543,-1.970173 -5.48833,-5.488338 z m 5.62906,1.407266 c 0.56291,-1.970172 -0.84436,-5.34761 -2.1109,-4.081071 -1.40727,1.266539 0,4.081071 2.1109,4.081071 z"
       id="path31"
       style="fill:#ffffff;stroke-width:1.40727" />
    <path
       class="cls-0"
       d="m 367.65169,50.651829 c -2.42455,2.145108 -5.48834,-1.970173 -4.08107,-10.835948 0.70363,-4.362525 -4.92543,5.34761 -7.03633,9.428682 -0.98509,1.688719 -3.09599,1.407266 -2.95526,-1.125813 0.84436,-3.799618 3.51817,-17.027918 -0.14073,-12.243214 -4.08107,4.362524 -7.45851,12.243214 -9.0065,15.479926 -0.84436,2.251625 -3.51816,1.407266 -2.81453,-0.703633 l 4.08107,-18.716638 c 0.28145,-2.110899 3.65889,-1.547992 2.81453,1.266539 l -2.53308,9.287956 c 1.82945,-3.518165 6.19197,-12.102487 9.85087,-12.102487 4.7847,0.140726 2.81453,7.036329 2.81453,9.428682 2.53308,-4.362525 4.7847,-6.754877 7.03633,-5.769791 4.08107,1.407266 -1.40727,11.821034 1.97017,13.2283 1.40727,-1.266539 2.25163,0.703633 1.26654,2.110899 0,0 -0.32682,0.428914 -0.51533,0.620692 -0.23148,0.235504 -0.75121,0.645848 -0.75121,0.645848 z"
       id="path32"
       sodipodi:nodetypes="cccccccccccccccac"
       style="fill:#ffffff;stroke-width:1.40727" />
  </g>
</svg>
