<?xml version="1.0" encoding="UTF-8" standalone="no"?>
<!-- Created with Inkscape (http://www.inkscape.org/) -->

<svg
   width="400"
   height="100"
   viewBox="0 0 105.83333 26.458333"
   version="1.1"
   id="svg1"
   inkscape:version="1.4.2 (ebf0e940d0, 2025-05-08)"
   sodipodi:docname="carloscapote-logo.svg"
   inkscape:export-filename="export/carloscapote-logo.claro.png"
   inkscape:export-xdpi="96"
   inkscape:export-ydpi="96"
   xmlns:inkscape="http://www.inkscape.org/namespaces/inkscape"
   xmlns:sodipodi="http://sodipodi.sourceforge.net/DTD/sodipodi-0.dtd"
   xmlns:xlink="http://www.w3.org/1999/xlink"
   xmlns="http://www.w3.org/2000/svg"
   xmlns:svg="http://www.w3.org/2000/svg">
  <sodipodi:namedview
     id="namedview1"
     pagecolor="#ffffff"
     bordercolor="#000000"
     borderopacity="0.25"
     inkscape:showpageshadow="2"
     inkscape:pageopacity="0.0"
     inkscape:pagecheckerboard="0"
     inkscape:deskcolor="#d1d1d1"
     inkscape:document-units="mm"
     showgrid="true"
     inkscape:zoom="2.0157702"
     inkscape:cx="228.94475"
     inkscape:cy="154.28346"
     inkscape:window-width="1920"
     inkscape:window-height="1011"
     inkscape:window-x="0"
     inkscape:window-y="0"
     inkscape:window-maximized="1"
     inkscape:current-layer="layer1"
     inkscape:lockguides="true">
    <inkscape:grid
       id="grid1"
       units="px"
       originx="0"
       originy="0"
       spacingx="1.0583333"
       spacingy="1.0583333"
       empcolor="#0099e5"
       empopacity="0.30196078"
       color="#0099e5"
       opacity="0.14901961"
       empspacing="4"
       enabled="true"
       visible="true" />
  </sodipodi:namedview>
  <defs
     id="defs1">
    <pattern
       inkscape:collect="always"
       xlink:href="#ap109"
       preserveAspectRatio="xMidYMid"
       id="pattern5"
       patternTransform="matrix(0.02,0,0,0.02,1328.7256,854.98659)"
       x="0"
       y="0" />
    <pattern
       patternUnits="userSpaceOnUse"
       preserveAspectRatio="xMidYMid"
       width="161.8868"
       height="280.43354"
       patternTransform="translate(1332.8295,854.30106) scale(0.2)"
       style="fill:#000000"
       id="ap109"
       inkscape:collect="always"
       inkscape:isstock="true"
       inkscape:label="ap109">
      <path
         id="path279"
         style="color:#000000;fill-opacity:1;stroke-width:3.77953"
         d="M 161.88673,0 0,0.00192756 V 4.5370961 H 48.152353 L 39.906255,18.83588 H 0 v 9.064517 H 34.679698 L 26.435565,42.199219 H 0 v 9.072264 L 37.826192,116.81639 29.484397,131.21091 0,80.564447 V 98.597631 L 21.58594,135.6836 H 4.6660157 L 0,127.59764 v 25.23829 l 4.6660157,-8.08592 H 21.58594 L 0,181.83594 v 18.03319 l 29.484397,-50.6465 8.341795,14.39452 L 0,229.16209 v 9.07227 h 26.435565 l 8.244133,14.29882 H 0 v 9.06448 h 39.906255 l 8.246098,14.29882 H 0 v 4.53706 h 161.88673 v -4.53706 h -43.48827 l 8.25974,-14.29882 h 35.22853 v -9.06448 h -29.99414 l 8.25978,-14.29882 h 21.73436 v -9.07616 l -0.002,0.004 h -16.49805 l 16.49998,-28.57032 v -18.13281 l -24.33982,42.14846 -8.25195,-14.29104 32.59177,-56.48436 v -27.23044 l -32.59177,-56.484393 8.25195,-14.291036 24.33982,42.14846 V 79.841499 l -16.4999,-28.570318 h 16.49805 l 0.002,0.0038 V 42.198823 H 140.15238 L 131.8926,27.900001 h 29.99414 V 18.835465 H 126.6582 L 118.39846,4.5366803 h 43.48827 z M 58.61915,4.5370961 H 75.339855 L 42.033222,61.142551 33.986343,47.263672 46.45508,25.634759 Z m 27.24805,0 h 16.81448 L 56.000013,85.347666 47.24417,70.154306 Z m 24.67774,4.5410267 8.24414,14.2753512 -38.90234,65.587918 H 64.408214 Z m 13.44923,23.2812472 8.3125,14.39452 -24.36915,42.187502 H 90.427767 Z M 10.47462,51.271483 h 15.347679 l 12.232403,21.105449 12.703144,22.042999 -7.691415,13.324199 z m 113.57813,27.917972 32.5996,56.494145 H 140.1758 L 128.0098,114.58008 115.80079,93.474595 Z M 59.166047,98.013657 h 48.771473 l 8.27539,14.298823 H 50.906268 Z M 45.658205,121.38474 H 121.4629 l 8.24414,14.29886 H 37.37503 Z m -8.283175,23.36527 h 92.33201 l -8.24414,14.29882 H 45.658205 Z m 102.80077,0 h 16.47655 l -32.5996,56.49411 -8.25196,-14.28514 12.20901,-21.10549 z M 50.906268,168.1211 h 65.306642 l -8.27539,14.29882 H 59.166047 Z m -7.839837,4.56835 7.691415,13.32423 -12.703144,22.04296 -12.232403,21.10545 H 10.47462 Z m 21.341783,18.80273 H 79.88674 l 38.90234,65.58785 -8.24414,14.27542 z m 26.019553,0 h 17.509753 l 24.36915,42.18751 -8.3125,14.39448 z m -34.427754,3.59377 46.681667,80.81053 H 85.8672 L 47.24417,210.27931 Z m -13.966791,24.20504 33.306633,56.60549 H 58.61915 L 46.45508,254.79882 33.986343,233.1699 Z"
         sodipodi:nodetypes="ccccccccccccccccccccccccccccccccccccccccccccccccccccccccccccccccccccccccccccccccccccccccccccccccccccccccccccccccccccccccccccccccccccccccccccccccccccccccccc" />
    </pattern>
    <linearGradient
       id="linearGradient16"
       inkscape:collect="always">
      <stop
         style="stop-color:#000000;stop-opacity:1;"
         offset="0"
         id="stop16" />
      <stop
         style="stop-color:#000000;stop-opacity:0;"
         offset="1"
         id="stop17" />
    </linearGradient>
    <clipPath
       clipPathUnits="userSpaceOnUse"
       id="clipPath25">
      <rect
         style="fill:#ff0000;stroke:none;stroke-width:3;stroke-linecap:square;stroke-linejoin:miter;paint-order:stroke markers fill;stop-color:#000000"
         id="rect25-8"
         width="78"
         height="45.033199"
         x="763.61322"
         y="452.82422" />
    </clipPath>
    <clipPath
       clipPathUnits="userSpaceOnUse"
       id="clipPath52">
      <path
         id="path52"
         style="stroke-width:0.1;stroke-linecap:square;paint-order:markers fill stroke;stop-color:#000000"
         d="m -880.82767,-187.29769 h 1640.84 v 73.28155 h -1640.84 z" />
    </clipPath>
    <linearGradient
       inkscape:collect="always"
       xlink:href="#linearGradient16"
       id="linearGradient17"
       x1="11.885196"
       y1="13.229166"
       x2="93.948137"
       y2="13.229166"
       gradientUnits="userSpaceOnUse" />
  </defs>
  <g
     inkscape:label="Layer 1"
     inkscape:groupmode="layer"
     id="layer1">
    <text
       xml:space="preserve"
       style="font-style:normal;font-variant:normal;font-weight:normal;font-stretch:normal;font-size:12.302px;font-family:'Berkshire Swash';-inkscape-font-specification:'Berkshire Swash, Normal';font-variant-ligatures:normal;font-variant-caps:normal;font-variant-numeric:normal;font-variant-east-asian:normal;text-align:start;writing-mode:lr-tb;direction:ltr;text-anchor:start;fill:url(#pattern5);fill-opacity:1;stroke:none;stroke-width:0.264583;stroke-linecap:round;stroke-linejoin:round;stroke-dasharray:none;stroke-opacity:1"
       x="7.3367949"
       y="16.364735"
       id="text1"><tspan
         sodipodi:role="line"
         id="tspan1"
         style="font-style:normal;font-variant:normal;font-weight:normal;font-stretch:normal;font-size:12.302px;font-family:'Berkshire Swash';-inkscape-font-specification:'Berkshire Swash, Normal';font-variant-ligatures:normal;font-variant-caps:normal;font-variant-numeric:normal;font-variant-east-asian:normal;fill:url(#pattern5);fill-opacity:1;stroke:none;stroke-width:0.264583;stroke-dasharray:none;stroke-opacity:1"
         x="7.3367949"
         y="16.364735">carloscapote.com</tspan></text>
  </g>
</svg>
