<?xml version="1.0" encoding="UTF-8" standalone="no"?>
<!-- Created with Inkscape (http://www.inkscape.org/) -->

<svg
   width="100"
   height="50"
   viewBox="0 0 100 50"
   version="1.1"
   id="svg34572"
   inkscape:version="1.4.2 (ebf0e940d0, 2025-05-08)"
   sodipodi:docname="hawara-logo.svg"
   inkscape:export-filename="export/hawara-logo.claro.png"
   inkscape:export-xdpi="245.75999"
   inkscape:export-ydpi="245.75999"
   xmlns:inkscape="http://www.inkscape.org/namespaces/inkscape"
   xmlns:sodipodi="http://sodipodi.sourceforge.net/DTD/sodipodi-0.dtd"
   xmlns:xlink="http://www.w3.org/1999/xlink"
   xmlns="http://www.w3.org/2000/svg"
   xmlns:svg="http://www.w3.org/2000/svg">
  <sodipodi:namedview
     id="namedview34574"
     pagecolor="#ffffff"
     bordercolor="#000000"
     borderopacity="1"
     inkscape:pageshadow="0"
     inkscape:pageopacity="1"
     inkscape:pagecheckerboard="0"
     inkscape:document-units="px"
     showgrid="false"
     units="px"
     inkscape:showpageshadow="0"
     inkscape:deskcolor="#d1d1d1"
     inkscape:zoom="4.455"
     inkscape:cx="67.1156"
     inkscape:cy="65.319865"
     inkscape:window-width="1920"
     inkscape:window-height="1043"
     inkscape:window-x="0"
     inkscape:window-y="0"
     inkscape:window-maximized="1"
     inkscape:current-layer="g6006">
    <inkscape:grid
       type="xygrid"
       id="grid5642"
       originx="0"
       originy="0"
       spacingy="1"
       spacingx="1"
       units="px" />
  </sodipodi:namedview>
  <defs
     id="defs34569">
    <linearGradient
       inkscape:collect="always"
       id="linearGradient1066">
      <stop
         style="stop-color:#20c997;stop-opacity:1;"
         offset="0"
         id="stop1062" />
      <stop
         style="stop-color:#20a3b0;stop-opacity:1;"
         offset="0.25393066"
         id="stop1070" />
      <stop
         style="stop-color:#bb61bc;stop-opacity:1;"
         offset="0.65721607"
         id="stop1072" />
      <stop
         style="stop-color:#e7eb25;stop-opacity:1;"
         offset="1"
         id="stop1064" />
    </linearGradient>
    <linearGradient
       inkscape:collect="always"
       xlink:href="#linearGradient1066"
       id="linearGradient4952"
       gradientUnits="userSpaceOnUse"
       x1="16.02635"
       y1="51.499573"
       x2="52.392883"
       y2="36.155418"
       gradientTransform="translate(0,-25.000001)" />
    <linearGradient
       inkscape:collect="always"
       xlink:href="#linearGradient1066"
       id="linearGradient1"
       gradientUnits="userSpaceOnUse"
       x1="16.02635"
       y1="51.499573"
       x2="52.392883"
       y2="36.155418" />
    <linearGradient
       inkscape:collect="always"
       xlink:href="#linearGradient1066"
       id="linearGradient2"
       gradientUnits="userSpaceOnUse"
       x1="16.02635"
       y1="51.499573"
       x2="52.392883"
       y2="36.155418" />
    <linearGradient
       inkscape:collect="always"
       xlink:href="#linearGradient1066"
       id="linearGradient3"
       gradientUnits="userSpaceOnUse"
       x1="16.02635"
       y1="51.499573"
       x2="52.392883"
       y2="36.155418" />
    <linearGradient
       inkscape:collect="always"
       xlink:href="#linearGradient1066"
       id="linearGradient4"
       gradientUnits="userSpaceOnUse"
       x1="16.02635"
       y1="51.499573"
       x2="52.392883"
       y2="36.155418" />
    <linearGradient
       inkscape:collect="always"
       xlink:href="#linearGradient1066"
       id="linearGradient5"
       gradientUnits="userSpaceOnUse"
       x1="16.02635"
       y1="51.499573"
       x2="52.392883"
       y2="36.155418" />
    <linearGradient
       inkscape:collect="always"
       xlink:href="#linearGradient1066"
       id="linearGradient6"
       gradientUnits="userSpaceOnUse"
       x1="16.02635"
       y1="51.499573"
       x2="52.392883"
       y2="36.155418" />
    <linearGradient
       inkscape:collect="always"
       xlink:href="#linearGradient1066"
       id="linearGradient7"
       gradientUnits="userSpaceOnUse"
       x1="16.02635"
       y1="51.499573"
       x2="52.392883"
       y2="36.155418" />
    <linearGradient
       inkscape:collect="always"
       xlink:href="#linearGradient1066"
       id="linearGradient8"
       gradientUnits="userSpaceOnUse"
       x1="16.02635"
       y1="51.499573"
       x2="52.392883"
       y2="36.155418" />
    <linearGradient
       inkscape:collect="always"
       xlink:href="#linearGradient1066"
       id="linearGradient9"
       gradientUnits="userSpaceOnUse"
       x1="16.02635"
       y1="51.499573"
       x2="52.392883"
       y2="36.155418"
       gradientTransform="translate(0,-25.000001)" />
    <linearGradient
       inkscape:collect="always"
       xlink:href="#linearGradient1066"
       id="linearGradient10"
       gradientUnits="userSpaceOnUse"
       x1="16.02635"
       y1="51.499573"
       x2="52.392883"
       y2="36.155418" />
    <linearGradient
       inkscape:collect="always"
       xlink:href="#linearGradient1066"
       id="linearGradient11"
       gradientUnits="userSpaceOnUse"
       x1="16.02635"
       y1="51.499573"
       x2="52.392883"
       y2="36.155418" />
    <linearGradient
       inkscape:collect="always"
       xlink:href="#linearGradient1066"
       id="linearGradient12"
       gradientUnits="userSpaceOnUse"
       x1="16.02635"
       y1="51.499573"
       x2="52.392883"
       y2="36.155418" />
    <linearGradient
       inkscape:collect="always"
       xlink:href="#linearGradient1066"
       id="linearGradient13"
       gradientUnits="userSpaceOnUse"
       x1="16.02635"
       y1="51.499573"
       x2="52.392883"
       y2="36.155418" />
    <linearGradient
       inkscape:collect="always"
       xlink:href="#linearGradient1066"
       id="linearGradient14"
       gradientUnits="userSpaceOnUse"
       x1="16.02635"
       y1="51.499573"
       x2="52.392883"
       y2="36.155418" />
    <linearGradient
       inkscape:collect="always"
       xlink:href="#linearGradient1066"
       id="linearGradient15"
       gradientUnits="userSpaceOnUse"
       x1="16.02635"
       y1="51.499573"
       x2="52.392883"
       y2="36.155418" />
    <linearGradient
       inkscape:collect="always"
       xlink:href="#linearGradient1066"
       id="linearGradient16"
       gradientUnits="userSpaceOnUse"
       x1="16.02635"
       y1="51.499573"
       x2="52.392883"
       y2="36.155418" />
    <linearGradient
       inkscape:collect="always"
       xlink:href="#linearGradient1066"
       id="linearGradient17"
       gradientUnits="userSpaceOnUse"
       x1="16.02635"
       y1="51.499573"
       x2="52.392883"
       y2="36.155418" />
  </defs>
  <g
     inkscape:groupmode="layer"
     id="layer3"
     inkscape:label="Oscuro sobre claro (curva)"
     style="display:inline">
    <g
       inkscape:groupmode="layer"
       id="layer2"
       inkscape:label="Fondo claro"
       style="display:none">
      <rect
         style="font-variation-settings:'wght' 131;fill:#f5ece5;fill-opacity:1;stroke:none;stroke-width:0.353553;stroke-linecap:round;stroke-linejoin:round;paint-order:markers fill stroke;stop-color:#000000"
         id="rect1159"
         width="100"
         height="50"
         x="0"
         y="0" />
    </g>
    <g
       inkscape:label="Texto oscuro"
       inkscape:groupmode="layer"
       id="layer1">
      <g
         aria-label="hawära"
         id="text7756"
         style="font-size:7.8px;font-family:'AR PL KaitiM GB';-inkscape-font-specification:'AR PL KaitiM GB, Normal';text-align:center;letter-spacing:-0.25px;text-anchor:middle;stroke-width:0.15;paint-order:fill markers stroke;stop-color:#000000"
         transform="translate(0,-25)">
        <path
           d="m 17.888672,50.843433 q 0.433594,-0.621093 0.984375,-1.113281 0.222656,-0.210937 0.492187,-0.410156 0.28125,-0.199219 0.585938,-0.351563 0.316406,-0.164062 0.65625,-0.257812 0.351562,-0.09375 0.714844,-0.09375 0.785156,0 1.40625,0.304687 0.621093,0.304688 1.042968,1.019532 0.421875,0.714843 0.644532,1.898437 0.222656,1.171875 0.222656,2.917969 0,1.699219 -0.304688,2.953125 -0.304687,1.253906 -0.796875,2.132812 -0.492187,0.878907 -1.113281,1.429688 -0.621094,0.5625 -1.253906,0.878906 -0.632813,0.316406 -1.21875,0.433594 -0.585938,0.128906 -1.007813,0.140625 l -0.117187,-0.480469 q 0.527344,-0.128906 0.9375,-0.480469 0.410156,-0.351562 0.691406,-1.148437 0.28125,-0.808594 0.421875,-2.167969 0.152344,-1.359375 0.152344,-3.503906 0,-1.476563 -0.140625,-2.355469 -0.128906,-0.890625 -0.351563,-1.347656 -0.210937,-0.46875 -0.492187,-0.609375 -0.269531,-0.152344 -0.550781,-0.152344 -0.339844,0 -0.597657,0.1875 -0.257812,0.175781 -0.457031,0.410156 -0.1875,0.234375 -0.328125,0.46875 -0.128906,0.234375 -0.222656,0.351563 v 7.828125 q 0,0.152344 -0.04687,0.375 -0.04687,0.210937 -0.234375,0.410156 -0.175781,0.1875 -0.539063,0.316406 -0.351562,0.140625 -0.972656,0.140625 -0.621094,0 -0.984375,-0.152343 -0.363281,-0.140625 -0.550781,-0.339844 -0.175781,-0.199219 -0.222656,-0.410156 -0.04687,-0.210938 -0.04687,-0.339844 V 44.609058 q 0,-0.339843 -0.164063,-0.585937 -0.152344,-0.257813 -0.527344,-0.257813 -0.199218,0 -0.351562,0.07031 -0.140625,0.05859 -0.304688,0.1875 l -0.234375,-0.28125 q 0.269532,-0.222656 0.597657,-0.433594 0.328125,-0.222656 0.714843,-0.386719 0.398438,-0.164062 0.84375,-0.269531 0.445313,-0.105469 0.9375,-0.105469 0.761719,0 1.183594,0.210938 0.421875,0.199219 0.621094,0.503906 0.199219,0.292969 0.234375,0.632813 0.04687,0.328125 0.04687,0.585937 z"
           style="font-size:24px;font-family:'Berkshire Swash';-inkscape-font-specification:'Berkshire Swash, Normal'"
           id="path6035" />
        <path
           d="m 32.087891,54.710621 q 0,-0.292969 -0.1875,-0.445313 -0.1875,-0.152343 -0.480469,-0.152343 -0.410156,0 -0.785156,0.1875 -0.363282,0.1875 -0.644532,0.550781 -0.28125,0.363281 -0.445312,0.902344 -0.164063,0.527343 -0.164063,1.230468 0,0.679688 0.09375,1.125 0.105469,0.445313 0.269532,0.714844 0.175781,0.257813 0.398437,0.363281 0.222656,0.105469 0.46875,0.105469 0.304688,0 0.574219,-0.152344 0.269531,-0.164062 0.46875,-0.410156 0.199219,-0.246094 0.316406,-0.550781 0.117188,-0.304688 0.117188,-0.609375 z m -1.863282,-5.132813 q -0.398437,0 -0.738281,0.09375 -0.339844,0.09375 -0.585937,0.234375 -0.246094,0.140625 -0.386719,0.316407 -0.140625,0.164062 -0.140625,0.316406 0,0.175781 0.175781,0.257812 0.1875,0.07031 0.410156,0.175782 0.222657,0.09375 0.398438,0.28125 0.1875,0.175781 0.1875,0.550781 0,0.246094 -0.105469,0.457031 -0.09375,0.199219 -0.269531,0.363281 -0.164063,0.152344 -0.398438,0.246094 -0.222656,0.08203 -0.46875,0.08203 -0.65625,0 -1.066406,-0.445312 -0.398437,-0.445313 -0.398437,-1.183594 0,-0.714844 0.375,-1.21875 0.375,-0.515625 0.972656,-0.84375 0.609375,-0.328125 1.371094,-0.480469 0.761718,-0.164062 1.523437,-0.164062 0.914063,0 1.746094,0.199219 0.832031,0.199218 1.464844,0.632812 0.644531,0.433594 1.019531,1.101563 0.386719,0.667968 0.386719,1.617187 v 6.621094 q 0,0.105469 0.01172,0.234375 0.01172,0.128906 0.05859,0.234375 0.04687,0.105469 0.140625,0.175781 0.09375,0.07031 0.269531,0.07031 0.210938,0 0.386719,-0.152344 0.1875,-0.164063 0.328125,-0.328125 l 0.292969,0.246094 q -0.175781,0.246093 -0.421875,0.539062 -0.246094,0.292969 -0.597656,0.550781 -0.351563,0.257813 -0.820313,0.433594 -0.46875,0.175781 -1.066406,0.175781 -0.738281,0 -1.3125,-0.433593 -0.574219,-0.445313 -0.75,-1.359375 -0.375,0.503906 -0.785156,0.84375 -0.398438,0.339843 -0.820313,0.550781 -0.421875,0.210937 -0.855469,0.304687 -0.421875,0.09375 -0.855468,0.09375 -0.5625,0 -1.089844,-0.175781 -0.527344,-0.175781 -0.949219,-0.550781 -0.410156,-0.386719 -0.667969,-0.996094 -0.246093,-0.609375 -0.246093,-1.488281 0,-1.066406 0.421875,-1.746094 0.421875,-0.679687 1.101562,-1.136719 0.691406,-0.46875 1.558594,-0.796875 0.878906,-0.328125 1.792969,-0.691406 0.679687,-0.269531 0.984375,-0.796875 0.316406,-0.539062 0.316406,-1.101562 0,-0.867188 -0.515625,-1.382813 -0.503906,-0.527344 -1.382813,-0.527344 z"
           style="font-size:24px;font-family:'Berkshire Swash';-inkscape-font-specification:'Berkshire Swash, Normal'"
           id="path6037" />
        <path
           d="m 52.791016,52.331715 q 0,-0.773438 -0.105469,-1.277344 -0.105469,-0.503906 -0.234375,-0.832031 -0.117188,-0.339844 -0.222656,-0.550782 -0.105469,-0.222656 -0.105469,-0.410156 0,-0.175781 0.140625,-0.292969 0.140625,-0.117187 0.328125,-0.199218 0.199219,-0.08203 0.398437,-0.117188 0.210938,-0.03516 0.339844,-0.03516 0.339844,0 0.492188,0.09375 0.152343,0.09375 0.246093,0.363281 0.105469,0.339844 0.140625,0.902344 0.04687,0.550781 0.04687,1.183594 0,0.902343 -0.105468,1.980468 -0.105469,1.078125 -0.339844,2.167969 -0.222656,1.089844 -0.585938,2.109375 -0.351562,1.019531 -0.855468,1.816406 -0.503907,0.785157 -1.160157,1.265625 -0.65625,0.46875 -1.488281,0.46875 -0.65625,0 -1.183594,-0.257812 -0.515625,-0.269531 -0.925781,-0.726563 -0.410156,-0.457031 -0.726562,-1.066406 -0.304688,-0.621094 -0.539063,-1.324219 -0.269531,0.714844 -0.621094,1.335938 -0.351562,0.609375 -0.785156,1.066406 -0.421875,0.457031 -0.9375,0.714844 -0.515625,0.257812 -1.113281,0.257812 -0.738281,0 -1.3125,-0.316406 -0.5625,-0.328125 -0.996094,-0.878906 -0.433594,-0.5625 -0.75,-1.300781 -0.316406,-0.738282 -0.550781,-1.558594 -0.222656,-0.820313 -0.375,-1.6875 -0.152344,-0.867188 -0.257813,-1.675781 -0.105468,-0.808594 -0.175781,-1.511719 -0.07031,-0.703125 -0.140625,-1.21875 -0.08203,-0.46875 -0.246094,-0.726563 -0.152343,-0.257812 -0.527343,-0.257812 -0.199219,0 -0.339844,0.07031 -0.140625,0.07031 -0.304688,0.199219 l -0.246093,-0.292969 q 0.269531,-0.222656 0.597656,-0.433593 0.339844,-0.222657 0.726562,-0.386719 0.386719,-0.164063 0.832032,-0.269531 0.445312,-0.105469 0.9375,-0.105469 0.703125,0 1.136718,0.246094 0.433594,0.234375 0.679688,0.597656 0.257812,0.351562 0.363281,0.761719 0.105469,0.410156 0.152344,0.738281 0.210937,1.769531 0.410156,3.117187 0.210938,1.347657 0.445313,2.261719 0.234375,0.902344 0.503906,1.371094 0.28125,0.457031 0.65625,0.457031 0.246094,0 0.480469,-0.210937 0.234375,-0.210938 0.445312,-0.585938 0.210938,-0.375 0.398438,-0.902344 0.1875,-0.539062 0.328125,-1.183593 -0.117188,-0.644532 -0.199219,-1.277344 -0.08203,-0.632813 -0.152344,-1.207031 -0.05859,-0.585938 -0.117187,-1.089844 -0.05859,-0.503906 -0.128907,-0.890625 -0.175781,-1.101563 0.199219,-1.652344 0.386719,-0.550781 1.535156,-0.550781 0.503907,0 0.84375,0.09375 0.351563,0.08203 0.574219,0.328125 0.234375,0.234375 0.375,0.65625 0.140625,0.410156 0.222656,1.054687 0.222657,1.757813 0.433594,3.140625 0.210938,1.382813 0.445313,2.332032 0.234375,0.949218 0.503906,1.453125 0.28125,0.492187 0.65625,0.492187 0.398437,0 0.738281,-0.492187 0.339844,-0.492188 0.585938,-1.300782 0.246093,-0.808593 0.375,-1.863281 0.140625,-1.054687 0.140625,-2.179687 z"
           style="font-size:24px;font-family:'Berkshire Swash';-inkscape-font-specification:'Berkshire Swash, Normal'"
           id="path6039" />
        <path
           d="m 61.447266,54.710621 q 0,-0.292969 -0.1875,-0.445313 -0.1875,-0.152343 -0.480469,-0.152343 -0.410156,0 -0.785156,0.1875 -0.363282,0.1875 -0.644532,0.550781 -0.28125,0.363281 -0.445312,0.902344 -0.164063,0.527343 -0.164063,1.230468 0,0.679688 0.09375,1.125 0.105469,0.445313 0.269532,0.714844 0.175781,0.257813 0.398437,0.363281 0.222656,0.105469 0.46875,0.105469 0.304688,0 0.574219,-0.152344 0.269531,-0.164062 0.46875,-0.410156 0.199219,-0.246094 0.316406,-0.550781 0.117188,-0.304688 0.117188,-0.609375 z m -1.863282,-5.132813 q -0.398437,0 -0.738281,0.09375 -0.339844,0.09375 -0.585937,0.234375 -0.246094,0.140625 -0.386719,0.316407 -0.140625,0.164062 -0.140625,0.316406 0,0.175781 0.175781,0.257812 0.1875,0.07031 0.410156,0.175782 0.222657,0.09375 0.398438,0.28125 0.1875,0.175781 0.1875,0.550781 0,0.246094 -0.105469,0.457031 -0.09375,0.199219 -0.269531,0.363281 -0.164063,0.152344 -0.398438,0.246094 -0.222656,0.08203 -0.46875,0.08203 -0.65625,0 -1.066406,-0.445312 -0.398437,-0.445313 -0.398437,-1.183594 0,-0.714844 0.375,-1.21875 0.375,-0.515625 0.972656,-0.84375 0.609375,-0.328125 1.371094,-0.480469 0.761718,-0.164062 1.523437,-0.164062 0.914063,0 1.746094,0.199219 0.832031,0.199218 1.464844,0.632812 0.644531,0.433594 1.019531,1.101563 0.386719,0.667968 0.386719,1.617187 v 6.621094 q 0,0.105469 0.01172,0.234375 0.01172,0.128906 0.05859,0.234375 0.04687,0.105469 0.140625,0.175781 0.09375,0.07031 0.269531,0.07031 0.210938,0 0.386719,-0.152344 0.1875,-0.164063 0.328125,-0.328125 l 0.292969,0.246094 q -0.175781,0.246093 -0.421875,0.539062 -0.246094,0.292969 -0.597656,0.550781 -0.351563,0.257813 -0.820313,0.433594 -0.46875,0.175781 -1.066406,0.175781 -0.738281,0 -1.3125,-0.433593 -0.574219,-0.445313 -0.75,-1.359375 -0.375,0.503906 -0.785156,0.84375 -0.398438,0.339843 -0.820313,0.550781 -0.421875,0.210937 -0.855469,0.304687 -0.421875,0.09375 -0.855468,0.09375 -0.5625,0 -1.089844,-0.175781 -0.527344,-0.175781 -0.949219,-0.550781 -0.410156,-0.386719 -0.667969,-0.996094 -0.246093,-0.609375 -0.246093,-1.488281 0,-1.066406 0.421875,-1.746094 0.421875,-0.679687 1.101562,-1.136719 0.691406,-0.46875 1.558594,-0.796875 0.878906,-0.328125 1.792969,-0.691406 0.679687,-0.269531 0.984375,-0.796875 0.316406,-0.539062 0.316406,-1.101562 0,-0.867188 -0.515625,-1.382813 -0.503906,-0.527344 -1.382813,-0.527344 z m -2.238281,-4.160156 q 0,-0.257812 0.09375,-0.480469 0.105469,-0.234375 0.28125,-0.410156 0.175781,-0.175781 0.398438,-0.269531 0.234375,-0.105469 0.492187,-0.105469 0.257813,0 0.492188,0.105469 0.234375,0.09375 0.410156,0.269531 0.175781,0.175781 0.269531,0.410156 0.105469,0.222657 0.105469,0.480469 0,0.269531 -0.105469,0.503906 -0.09375,0.222657 -0.269531,0.398438 -0.175781,0.175781 -0.410156,0.28125 -0.234375,0.09375 -0.492188,0.09375 -0.257812,0 -0.492187,-0.09375 -0.222657,-0.105469 -0.398438,-0.28125 -0.175781,-0.175781 -0.28125,-0.398438 -0.09375,-0.234375 -0.09375,-0.503906 z m 4.125,0 q 0,-0.257812 0.09375,-0.480469 0.105469,-0.234375 0.28125,-0.410156 0.175781,-0.175781 0.398438,-0.269531 0.234375,-0.105469 0.503906,-0.105469 0.257812,0 0.480469,0.105469 0.234375,0.09375 0.410156,0.269531 0.175781,0.175781 0.269531,0.410156 0.105469,0.222657 0.105469,0.480469 0,0.269531 -0.105469,0.503906 -0.09375,0.222657 -0.269531,0.398438 -0.175781,0.175781 -0.410156,0.28125 -0.222657,0.09375 -0.480469,0.09375 -0.269531,0 -0.503906,-0.09375 -0.222657,-0.105469 -0.398438,-0.28125 -0.175781,-0.175781 -0.28125,-0.398438 -0.09375,-0.234375 -0.09375,-0.503906 z"
           style="font-size:24px;font-family:'Berkshire Swash';-inkscape-font-specification:'Berkshire Swash, Normal'"
           id="path6041" />
        <path
           d="m 71.615234,51.089527 q 0.445313,-0.679687 0.949219,-1.230469 0.210938,-0.234375 0.457031,-0.457031 0.246094,-0.222656 0.503907,-0.398437 0.269531,-0.175782 0.550781,-0.28125 0.28125,-0.105469 0.5625,-0.105469 0.597656,0 0.9375,0.363281 0.339844,0.351563 0.339844,0.996094 0,0.398437 -0.07031,0.773437 -0.05859,0.363282 -0.246094,0.890625 h -0.328125 q -0.07031,-0.363281 -0.328125,-0.597656 -0.257812,-0.246094 -0.75,-0.246094 -0.363281,0 -0.714843,0.140625 -0.351563,0.128907 -0.691407,0.328125 -0.328125,0.199219 -0.632812,0.433594 -0.292969,0.234375 -0.539063,0.445313 v 7.605468 q 0,0.152344 -0.04687,0.363282 -0.04687,0.210937 -0.234375,0.398437 -0.175781,0.1875 -0.539062,0.316406 -0.351563,0.140625 -0.972656,0.140625 -0.621094,0 -0.984375,-0.152343 -0.351563,-0.140625 -0.539063,-0.339844 -0.1875,-0.199219 -0.234375,-0.410156 -0.04687,-0.210938 -0.04687,-0.339844 v -9.046875 q 0,-0.339844 -0.164062,-0.585938 -0.152344,-0.257812 -0.527344,-0.257812 -0.199219,0 -0.339844,0.07031 -0.140625,0.07031 -0.304687,0.199219 L 66.43556,49.812181 q 0.269531,-0.222656 0.597656,-0.433593 0.339844,-0.222657 0.726563,-0.386719 0.386718,-0.164063 0.832031,-0.269531 0.445312,-0.105469 0.9375,-0.105469 0.503906,0 0.855469,0.140625 0.363281,0.128906 0.585937,0.351562 0.234375,0.210938 0.363281,0.480469 0.128907,0.269531 0.1875,0.550781 0.07031,0.269532 0.08203,0.527344 0.01172,0.246094 0.01172,0.421875 z"
           style="font-size:24px;font-family:'Berkshire Swash';-inkscape-font-specification:'Berkshire Swash, Normal'"
           id="path6043" />
        <path
           d="m 82.193359,54.710621 q 0,-0.292969 -0.1875,-0.445313 -0.1875,-0.152343 -0.480468,-0.152343 -0.410157,0 -0.785157,0.1875 -0.363281,0.1875 -0.644531,0.550781 -0.28125,0.363281 -0.445312,0.902344 -0.164063,0.527343 -0.164063,1.230468 0,0.679688 0.09375,1.125 0.105469,0.445313 0.269531,0.714844 0.175782,0.257813 0.398438,0.363281 0.222656,0.105469 0.46875,0.105469 0.304687,0 0.574219,-0.152344 0.269531,-0.164062 0.46875,-0.410156 0.199218,-0.246094 0.316406,-0.550781 0.117187,-0.304688 0.117187,-0.609375 z m -1.863281,-5.132813 q -0.398437,0 -0.738281,0.09375 -0.339844,0.09375 -0.585938,0.234375 -0.246093,0.140625 -0.386718,0.316407 -0.140625,0.164062 -0.140625,0.316406 0,0.175781 0.175781,0.257812 0.1875,0.07031 0.410156,0.175782 0.222656,0.09375 0.398438,0.28125 0.1875,0.175781 0.1875,0.550781 0,0.246094 -0.105469,0.457031 -0.09375,0.199219 -0.269531,0.363281 -0.164063,0.152344 -0.398438,0.246094 -0.222656,0.08203 -0.46875,0.08203 -0.65625,0 -1.066406,-0.445312 -0.398438,-0.445313 -0.398438,-1.183594 0,-0.714844 0.375,-1.21875 0.375,-0.515625 0.972657,-0.84375 0.609375,-0.328125 1.371093,-0.480469 0.761719,-0.164062 1.523438,-0.164062 0.914062,0 1.746094,0.199219 0.832031,0.199218 1.464843,0.632812 0.644532,0.433594 1.019532,1.101563 0.386718,0.667968 0.386718,1.617187 v 6.621094 q 0,0.105469 0.01172,0.234375 0.01172,0.128906 0.05859,0.234375 0.04687,0.105469 0.140625,0.175781 0.09375,0.07031 0.269531,0.07031 0.210938,0 0.386719,-0.152344 0.1875,-0.164063 0.328125,-0.328125 l 0.292969,0.246094 q -0.175782,0.246093 -0.421875,0.539062 -0.246094,0.292969 -0.597657,0.550781 -0.351562,0.257813 -0.820312,0.433594 -0.46875,0.175781 -1.066406,0.175781 -0.738282,0 -1.3125,-0.433593 -0.574219,-0.445313 -0.75,-1.359375 -0.375,0.503906 -0.785157,0.84375 -0.398437,0.339843 -0.820312,0.550781 -0.421875,0.210937 -0.855469,0.304687 -0.421875,0.09375 -0.855469,0.09375 -0.5625,0 -1.089843,-0.175781 -0.527344,-0.175781 -0.949219,-0.550781 -0.410156,-0.386719 -0.667969,-0.996094 -0.246094,-0.609375 -0.246094,-1.488281 0,-1.066406 0.421875,-1.746094 0.421875,-0.679687 1.101563,-1.136719 0.691406,-0.46875 1.558594,-0.796875 0.878906,-0.328125 1.792968,-0.691406 0.679688,-0.269531 0.984375,-0.796875 0.316407,-0.539062 0.316407,-1.101562 0,-0.867188 -0.515625,-1.382813 -0.503907,-0.527344 -1.382813,-0.527344 z"
           style="font-size:24px;font-family:'Berkshire Swash';-inkscape-font-specification:'Berkshire Swash, Normal'"
           id="path6045" />
      </g>
      <g
         aria-label="estudio"
         id="text7760"
         style="font-size:10.2687px;font-family:'Asap VF Beta';-inkscape-font-specification:'Asap VF Beta, @wght=131.0';font-variation-settings:'wght' 131;text-align:center;text-anchor:middle;fill:url(#linearGradient8);stroke-width:0.197476;paint-order:fill markers stroke;stop-color:#000000"
         transform="translate(0,-25)">
        <path
           d="m 24.171678,39.563674 q 0.811228,0 1.293857,0.369673 0.482629,0.359405 0.698271,0.965258 0.225912,0.605853 0.225912,1.314394 0,0.09242 -0.102687,0.23618 -0.102687,0.143761 -0.23618,0.256717 -0.123225,0.112956 -0.184837,0.112956 h -2.618519 q 0.05134,0.616122 0.359405,0.852302 0.31833,0.225911 0.821496,0.225911 0.328598,0 0.575047,-0.07188 0.256718,-0.08215 0.421017,-0.164299 0.174568,-0.08215 0.246449,-0.08215 0.112955,0 0.23618,0.15403 0.123224,0.154031 0.205374,0.338867 0.09242,0.184837 0.09242,0.287524 0,0.195105 -0.205374,0.338867 -0.195105,0.133493 -0.503166,0.225911 -0.308061,0.09242 -0.616122,0.133493 -0.308061,0.04107 -0.523704,0.04107 -1.396543,0 -2.043471,-0.739346 -0.63666,-0.749615 -0.63666,-1.992128 0,-1.006332 0.31833,-1.622454 0.31833,-0.626391 0.883108,-0.903646 0.564779,-0.277255 1.293856,-0.277255 z m 0,1.201438 q -0.318329,0 -0.575047,0.225911 -0.256717,0.215643 -0.349136,0.811228 h 1.66353 q 0,-0.441554 -0.184837,-0.739347 -0.174568,-0.297792 -0.55451,-0.297792 z"
           id="path6020"
           style="fill:url(#linearGradient1)" />
        <path
           d="m 29.090381,39.563674 q 0.297792,0 0.657197,0.06161 0.359404,0.05134 0.616122,0.184837 0.266986,0.133493 0.266986,0.349136 0,0.112955 -0.07188,0.308061 -0.07188,0.195105 -0.174568,0.349135 -0.09242,0.154031 -0.195105,0.154031 -0.08215,0 -0.308061,-0.102687 -0.215643,-0.112956 -0.575047,-0.112956 -0.256718,0 -0.40048,0.08215 -0.143762,0.08215 -0.143762,0.277255 0,0.225911 0.174568,0.359404 0.174568,0.123225 0.441554,0.225912 0.277255,0.09242 0.544242,0.225911 0.225911,0.112956 0.431285,0.287524 0.205374,0.174567 0.328598,0.451822 0.133493,0.277255 0.133493,0.677735 0,0.523703 -0.23618,0.924183 -0.23618,0.39021 -0.688003,0.616122 -0.441554,0.215642 -1.088482,0.215642 -0.379942,0 -0.780421,-0.08215 -0.39021,-0.08215 -0.657197,-0.23618 -0.266986,-0.154031 -0.266986,-0.379942 0,-0.133493 0.09242,-0.31833 0.09242,-0.184837 0.215643,-0.328598 0.133493,-0.143762 0.23618,-0.143762 0.08215,0 0.215643,0.07188 0.143762,0.07188 0.338867,0.143761 0.205374,0.07188 0.482629,0.07188 0.595584,0 0.595584,-0.431285 0,-0.297792 -0.266986,-0.421017 -0.266986,-0.123224 -0.616122,-0.256717 -0.256717,-0.09242 -0.523703,-0.256718 -0.266987,-0.164299 -0.462092,-0.462091 -0.184836,-0.308061 -0.184836,-0.821496 0,-0.533973 0.225911,-0.903646 0.23618,-0.379942 0.657197,-0.575047 0.421016,-0.205374 0.985795,-0.205374 z"
           id="path6022"
           style="fill:url(#linearGradient2)" />
        <path
           d="m 32.81792,38.341699 q 0.513435,0 0.513435,0.328598 v 0.975527 h 0.503167 q 0.308061,0 0.308061,0.513435 v 0.174568 q 0,0.513435 -0.308061,0.513435 h -0.503167 v 2.608249 q 0,0.225912 0.08215,0.338867 0.09242,0.102687 0.287523,0.102687 0.07188,0 0.154031,-0.02054 0.08215,-0.02054 0.123224,-0.02054 0.102687,0 0.174568,0.174567 0.07188,0.1643 0.102687,0.349136 0.04107,0.174568 0.04107,0.215643 0,0.23618 -0.184837,0.349136 -0.174567,0.102687 -0.410748,0.123224 -0.23618,0.03081 -0.39021,0.03081 -0.359405,0 -0.646928,-0.09242 -0.277255,-0.102687 -0.47236,-0.308061 -0.184837,-0.205374 -0.287524,-0.513435 -0.09242,-0.31833 -0.09242,-0.749615 v -2.587712 h -0.164299 q -0.308061,0 -0.308061,-0.513435 v -0.174568 q 0,-0.513435 0.308061,-0.513435 h 0.164299 l 0.133493,-0.975527 q 0.05134,-0.328598 0.55451,-0.328598 z"
           id="path6024"
           style="fill:url(#linearGradient3)" />
        <path
           d="m 38.999687,39.625286 q 0.616122,0 0.616122,0.328599 v 3.255177 q 0,0.533973 0.03081,0.821496 0.03081,0.277255 0.06161,0.421017 0.03081,0.133493 0.03081,0.246449 0,0.09242 -0.143761,0.15403 -0.133494,0.06161 -0.338868,0.102687 -0.195105,0.04107 -0.39021,0.06161 -0.184837,0.01027 -0.277255,0.01027 -0.164299,0 -0.246449,-0.112955 -0.07188,-0.123225 -0.102687,-0.287524 -0.03081,-0.164299 -0.06161,-0.308061 -0.225911,0.287524 -0.626391,0.533972 -0.400479,0.246449 -0.903645,0.246449 -0.770153,0 -1.139826,-0.400479 -0.369673,-0.410748 -0.369673,-1.26305 v -3.481089 q 0,-0.328599 0.616122,-0.328599 h 0.287523 q 0.616122,0 0.616122,0.328599 v 3.255177 q 0,0.297793 0.133494,0.472361 0.143761,0.164299 0.482628,0.164299 0.31833,0 0.523704,-0.205374 0.205374,-0.215643 0.297792,-0.390211 v -3.296252 q 0,-0.328599 0.616122,-0.328599 z"
           id="path6026"
           style="fill:url(#linearGradient4)" />
        <path
           d="m 44.801493,37.273754 q 0.616122,0 0.616122,0.328598 v 5.60671 q 0,0.533973 0.03081,0.821496 0.03081,0.277255 0.06161,0.421017 0.03081,0.133493 0.03081,0.246449 0,0.09242 -0.143762,0.15403 -0.133493,0.06161 -0.338867,0.102687 -0.195105,0.04107 -0.390211,0.06161 -0.184836,0.01027 -0.277255,0.01027 -0.164299,0 -0.246448,-0.112955 -0.07188,-0.123225 -0.102687,-0.287524 -0.03081,-0.164299 -0.06161,-0.297792 -0.174567,0.328598 -0.533972,0.55451 -0.359404,0.215642 -0.842033,0.215642 -0.55451,0 -0.996064,-0.318329 -0.431286,-0.31833 -0.677734,-0.934452 -0.246449,-0.626391 -0.246449,-1.519768 0,-1.252781 0.564778,-2.002396 0.564779,-0.759884 1.601918,-0.759884 0.359404,0 0.616122,0.102687 0.266986,0.102687 0.431285,0.215643 v -2.279652 q 0,-0.328598 0.616122,-0.328598 z m -1.622454,3.491358 q -0.482629,0 -0.718809,0.400479 -0.23618,0.390211 -0.23618,1.160363 0,0.749615 0.205374,1.139826 0.205374,0.390211 0.626391,0.390211 0.297792,0 0.503166,-0.184837 0.205374,-0.184837 0.338867,-0.421017 v -2.28992 q -0.123224,-0.07188 -0.308061,-0.133493 -0.174568,-0.06161 -0.410748,-0.06161 z"
           id="path6028"
           style="fill:url(#linearGradient5)" />
        <path
           d="m 47.563779,39.625286 q 0.616122,0 0.616122,0.328599 v 4.754408 q 0,0.328598 -0.616122,0.328598 h -0.287523 q -0.616122,0 -0.616122,-0.328598 v -4.754408 q 0,-0.328599 0.616122,-0.328599 z m 0,-2.351532 q 0.616122,0 0.616122,0.328598 v 0.831765 q 0,0.328599 -0.616122,0.328599 h -0.287523 q -0.616122,0 -0.616122,-0.328599 v -0.831765 q 0,-0.328598 0.616122,-0.328598 z"
           id="path6030"
           style="fill:url(#linearGradient6)" />
        <path
           d="m 51.702059,39.563674 q 1.221975,0 1.848366,0.718809 0.636659,0.70854 0.636659,2.043471 0,1.334931 -0.636659,2.05374 -0.626391,0.718809 -1.848366,0.718809 -1.221976,0 -1.858635,-0.718809 -0.636659,-0.718809 -0.636659,-2.05374 0,-1.334931 0.636659,-2.043471 0.636659,-0.718809 1.858635,-0.718809 z m 0,1.201438 q -0.492898,0 -0.729078,0.400479 -0.225911,0.390211 -0.225911,1.160363 0,0.770153 0.225911,1.170632 0.23618,0.400479 0.729078,0.400479 0.492897,0 0.718809,-0.400479 0.225911,-0.400479 0.225911,-1.170632 0,-0.770152 -0.225911,-1.160363 -0.225912,-0.400479 -0.718809,-0.400479 z"
           id="path6032"
           style="fill:url(#linearGradient7)" />
      </g>
    </g>
  </g>
  <g
     inkscape:groupmode="layer"
     id="g6018"
     inkscape:label="Oscuro sobre claro (texto)"
     style="display:none">
    <g
       inkscape:groupmode="layer"
       id="g6006"
       inkscape:label="Fondo claro">
      <rect
         style="font-variation-settings:'wght' 131;fill:#f5ece5;fill-opacity:1;stroke:none;stroke-width:0.353553;stroke-linecap:round;stroke-linejoin:round;paint-order:markers fill stroke;stop-color:#000000"
         id="rect6004"
         width="100"
         height="50"
         x="0"
         y="0" />
    </g>
    <g
       inkscape:label="Texto oscuro"
       inkscape:groupmode="layer"
       id="g6016">
      <text
         xml:space="preserve"
         style="font-style:normal;font-variant:normal;font-weight:normal;font-stretch:normal;font-size:7.8px;font-family:'AR PL KaitiM GB';-inkscape-font-specification:'AR PL KaitiM GB, Normal';font-variant-ligatures:normal;font-variant-caps:normal;font-variant-numeric:normal;font-variant-east-asian:normal;text-align:center;letter-spacing:-0.25px;text-anchor:middle;fill:#000000;fill-opacity:1;stroke:none;stroke-width:0.15;stroke-dasharray:none;stroke-opacity:1;paint-order:fill markers stroke;stop-color:#000000"
         x="50.105469"
         y="35.780933"
         id="text6010"><tspan
           sodipodi:role="line"
           id="tspan6008"
           x="49.980469"
           y="35.780933"
           style="font-style:normal;font-variant:normal;font-weight:normal;font-stretch:normal;font-size:24px;font-family:'Berkshire Swash';-inkscape-font-specification:'Berkshire Swash, Normal';font-variant-ligatures:normal;font-variant-caps:normal;font-variant-numeric:normal;font-variant-east-asian:normal">hawära</tspan></text>
      <text
         xml:space="preserve"
         style="font-style:normal;font-variant:normal;font-weight:normal;font-stretch:normal;font-size:10.2687px;font-family:'Asap VF Beta';-inkscape-font-specification:'Asap VF Beta, @wght=131.0';font-variant-ligatures:normal;font-variant-caps:normal;font-variant-numeric:normal;font-variant-east-asian:normal;font-variation-settings:'wght' 131;text-align:center;text-anchor:middle;fill:url(#linearGradient9);fill-opacity:1;stroke:none;stroke-width:0.197476;stroke-dasharray:none;stroke-opacity:1;paint-order:fill markers stroke;stop-color:#000000"
         x="37.931736"
         y="20.016352"
         id="text6014"><tspan
           sodipodi:role="line"
           id="tspan6012"
           x="37.931736"
           y="20.016352"
           style="font-style:normal;font-variant:normal;font-weight:normal;font-stretch:normal;font-size:10.2687px;font-family:'Asap VF Beta';-inkscape-font-specification:'Asap VF Beta, @wght=131.0';font-variant-ligatures:normal;font-variant-caps:normal;font-variant-numeric:normal;font-variant-east-asian:normal;font-variation-settings:'wght' 131;fill:url(#linearGradient9);fill-opacity:1;stroke-width:0.197476">estudio</tspan></text>
    </g>
  </g>
  <g
     inkscape:groupmode="layer"
     id="g3031"
     inkscape:label="Claro sobre oscuro (curva)"
     style="display:none">
    <g
       inkscape:groupmode="layer"
       id="g3019"
       inkscape:label="Fondo oscuro"
       style="display:none">
      <rect
         style="font-variation-settings:'wght' 131;fill:#333332;fill-opacity:1;stroke:none;stroke-width:0.353553;stroke-linecap:round;stroke-linejoin:round;paint-order:markers fill stroke;stop-color:#000000"
         id="rect3017"
         width="100"
         height="50"
         x="0"
         y="0" />
    </g>
    <g
       inkscape:label="Texto claro"
       inkscape:groupmode="layer"
       id="g3029">
      <g
         aria-label="hawära"
         id="text3023"
         style="font-size:7.8px;font-family:'AR PL KaitiM GB';-inkscape-font-specification:'AR PL KaitiM GB, Normal';text-align:center;letter-spacing:-0.25px;text-anchor:middle;fill:#f6f6f0;stroke-width:0.15;paint-order:fill markers stroke;stop-color:#000000"
         transform="translate(0,-25)">
        <path
           d="m 17.888672,50.843433 q 0.433594,-0.621093 0.984375,-1.113281 0.222656,-0.210937 0.492187,-0.410156 0.28125,-0.199219 0.585938,-0.351563 0.316406,-0.164062 0.65625,-0.257812 0.351562,-0.09375 0.714844,-0.09375 0.785156,0 1.40625,0.304687 0.621093,0.304688 1.042968,1.019532 0.421875,0.714843 0.644532,1.898437 0.222656,1.171875 0.222656,2.917969 0,1.699219 -0.304688,2.953125 -0.304687,1.253906 -0.796875,2.132812 -0.492187,0.878907 -1.113281,1.429688 -0.621094,0.5625 -1.253906,0.878906 -0.632813,0.316406 -1.21875,0.433594 -0.585938,0.128906 -1.007813,0.140625 l -0.117187,-0.480469 q 0.527344,-0.128906 0.9375,-0.480469 0.410156,-0.351562 0.691406,-1.148437 0.28125,-0.808594 0.421875,-2.167969 0.152344,-1.359375 0.152344,-3.503906 0,-1.476563 -0.140625,-2.355469 -0.128906,-0.890625 -0.351563,-1.347656 -0.210937,-0.46875 -0.492187,-0.609375 -0.269531,-0.152344 -0.550781,-0.152344 -0.339844,0 -0.597657,0.1875 -0.257812,0.175781 -0.457031,0.410156 -0.1875,0.234375 -0.328125,0.46875 -0.128906,0.234375 -0.222656,0.351563 v 7.828125 q 0,0.152344 -0.04687,0.375 -0.04687,0.210937 -0.234375,0.410156 -0.175781,0.1875 -0.539063,0.316406 -0.351562,0.140625 -0.972656,0.140625 -0.621094,0 -0.984375,-0.152343 -0.363281,-0.140625 -0.550781,-0.339844 -0.175781,-0.199219 -0.222656,-0.410156 -0.04687,-0.210938 -0.04687,-0.339844 V 44.609058 q 0,-0.339843 -0.164063,-0.585937 -0.152344,-0.257813 -0.527344,-0.257813 -0.199218,0 -0.351562,0.07031 -0.140625,0.05859 -0.304688,0.1875 l -0.234375,-0.28125 q 0.269532,-0.222656 0.597657,-0.433594 0.328125,-0.222656 0.714843,-0.386719 0.398438,-0.164062 0.84375,-0.269531 0.445313,-0.105469 0.9375,-0.105469 0.761719,0 1.183594,0.210938 0.421875,0.199219 0.621094,0.503906 0.199219,0.292969 0.234375,0.632813 0.04687,0.328125 0.04687,0.585937 z"
           style="font-size:24px;font-family:'Berkshire Swash';-inkscape-font-specification:'Berkshire Swash, Normal'"
           id="path5976" />
        <path
           d="m 32.087891,54.710621 q 0,-0.292969 -0.1875,-0.445313 -0.1875,-0.152343 -0.480469,-0.152343 -0.410156,0 -0.785156,0.1875 -0.363282,0.1875 -0.644532,0.550781 -0.28125,0.363281 -0.445312,0.902344 -0.164063,0.527343 -0.164063,1.230468 0,0.679688 0.09375,1.125 0.105469,0.445313 0.269532,0.714844 0.175781,0.257813 0.398437,0.363281 0.222656,0.105469 0.46875,0.105469 0.304688,0 0.574219,-0.152344 0.269531,-0.164062 0.46875,-0.410156 0.199219,-0.246094 0.316406,-0.550781 0.117188,-0.304688 0.117188,-0.609375 z m -1.863282,-5.132813 q -0.398437,0 -0.738281,0.09375 -0.339844,0.09375 -0.585937,0.234375 -0.246094,0.140625 -0.386719,0.316407 -0.140625,0.164062 -0.140625,0.316406 0,0.175781 0.175781,0.257812 0.1875,0.07031 0.410156,0.175782 0.222657,0.09375 0.398438,0.28125 0.1875,0.175781 0.1875,0.550781 0,0.246094 -0.105469,0.457031 -0.09375,0.199219 -0.269531,0.363281 -0.164063,0.152344 -0.398438,0.246094 -0.222656,0.08203 -0.46875,0.08203 -0.65625,0 -1.066406,-0.445312 -0.398437,-0.445313 -0.398437,-1.183594 0,-0.714844 0.375,-1.21875 0.375,-0.515625 0.972656,-0.84375 0.609375,-0.328125 1.371094,-0.480469 0.761718,-0.164062 1.523437,-0.164062 0.914063,0 1.746094,0.199219 0.832031,0.199218 1.464844,0.632812 0.644531,0.433594 1.019531,1.101563 0.386719,0.667968 0.386719,1.617187 v 6.621094 q 0,0.105469 0.01172,0.234375 0.01172,0.128906 0.05859,0.234375 0.04687,0.105469 0.140625,0.175781 0.09375,0.07031 0.269531,0.07031 0.210938,0 0.386719,-0.152344 0.1875,-0.164063 0.328125,-0.328125 l 0.292969,0.246094 q -0.175781,0.246093 -0.421875,0.539062 -0.246094,0.292969 -0.597656,0.550781 -0.351563,0.257813 -0.820313,0.433594 -0.46875,0.175781 -1.066406,0.175781 -0.738281,0 -1.3125,-0.433593 -0.574219,-0.445313 -0.75,-1.359375 -0.375,0.503906 -0.785156,0.84375 -0.398438,0.339843 -0.820313,0.550781 -0.421875,0.210937 -0.855469,0.304687 -0.421875,0.09375 -0.855468,0.09375 -0.5625,0 -1.089844,-0.175781 -0.527344,-0.175781 -0.949219,-0.550781 -0.410156,-0.386719 -0.667969,-0.996094 -0.246093,-0.609375 -0.246093,-1.488281 0,-1.066406 0.421875,-1.746094 0.421875,-0.679687 1.101562,-1.136719 0.691406,-0.46875 1.558594,-0.796875 0.878906,-0.328125 1.792969,-0.691406 0.679687,-0.269531 0.984375,-0.796875 0.316406,-0.539062 0.316406,-1.101562 0,-0.867188 -0.515625,-1.382813 -0.503906,-0.527344 -1.382813,-0.527344 z"
           style="font-size:24px;font-family:'Berkshire Swash';-inkscape-font-specification:'Berkshire Swash, Normal'"
           id="path5978" />
        <path
           d="m 52.791016,52.331715 q 0,-0.773438 -0.105469,-1.277344 -0.105469,-0.503906 -0.234375,-0.832031 -0.117188,-0.339844 -0.222656,-0.550782 -0.105469,-0.222656 -0.105469,-0.410156 0,-0.175781 0.140625,-0.292969 0.140625,-0.117187 0.328125,-0.199218 0.199219,-0.08203 0.398437,-0.117188 0.210938,-0.03516 0.339844,-0.03516 0.339844,0 0.492188,0.09375 0.152343,0.09375 0.246093,0.363281 0.105469,0.339844 0.140625,0.902344 0.04687,0.550781 0.04687,1.183594 0,0.902343 -0.105468,1.980468 -0.105469,1.078125 -0.339844,2.167969 -0.222656,1.089844 -0.585938,2.109375 -0.351562,1.019531 -0.855468,1.816406 -0.503907,0.785157 -1.160157,1.265625 -0.65625,0.46875 -1.488281,0.46875 -0.65625,0 -1.183594,-0.257812 -0.515625,-0.269531 -0.925781,-0.726563 -0.410156,-0.457031 -0.726562,-1.066406 -0.304688,-0.621094 -0.539063,-1.324219 -0.269531,0.714844 -0.621094,1.335938 -0.351562,0.609375 -0.785156,1.066406 -0.421875,0.457031 -0.9375,0.714844 -0.515625,0.257812 -1.113281,0.257812 -0.738281,0 -1.3125,-0.316406 -0.5625,-0.328125 -0.996094,-0.878906 -0.433594,-0.5625 -0.75,-1.300781 -0.316406,-0.738282 -0.550781,-1.558594 -0.222656,-0.820313 -0.375,-1.6875 -0.152344,-0.867188 -0.257813,-1.675781 -0.105468,-0.808594 -0.175781,-1.511719 -0.07031,-0.703125 -0.140625,-1.21875 -0.08203,-0.46875 -0.246094,-0.726563 -0.152343,-0.257812 -0.527343,-0.257812 -0.199219,0 -0.339844,0.07031 -0.140625,0.07031 -0.304688,0.199219 l -0.246093,-0.292969 q 0.269531,-0.222656 0.597656,-0.433593 0.339844,-0.222657 0.726562,-0.386719 0.386719,-0.164063 0.832032,-0.269531 0.445312,-0.105469 0.9375,-0.105469 0.703125,0 1.136718,0.246094 0.433594,0.234375 0.679688,0.597656 0.257812,0.351562 0.363281,0.761719 0.105469,0.410156 0.152344,0.738281 0.210937,1.769531 0.410156,3.117187 0.210938,1.347657 0.445313,2.261719 0.234375,0.902344 0.503906,1.371094 0.28125,0.457031 0.65625,0.457031 0.246094,0 0.480469,-0.210937 0.234375,-0.210938 0.445312,-0.585938 0.210938,-0.375 0.398438,-0.902344 0.1875,-0.539062 0.328125,-1.183593 -0.117188,-0.644532 -0.199219,-1.277344 -0.08203,-0.632813 -0.152344,-1.207031 -0.05859,-0.585938 -0.117187,-1.089844 -0.05859,-0.503906 -0.128907,-0.890625 -0.175781,-1.101563 0.199219,-1.652344 0.386719,-0.550781 1.535156,-0.550781 0.503907,0 0.84375,0.09375 0.351563,0.08203 0.574219,0.328125 0.234375,0.234375 0.375,0.65625 0.140625,0.410156 0.222656,1.054687 0.222657,1.757813 0.433594,3.140625 0.210938,1.382813 0.445313,2.332032 0.234375,0.949218 0.503906,1.453125 0.28125,0.492187 0.65625,0.492187 0.398437,0 0.738281,-0.492187 0.339844,-0.492188 0.585938,-1.300782 0.246093,-0.808593 0.375,-1.863281 0.140625,-1.054687 0.140625,-2.179687 z"
           style="font-size:24px;font-family:'Berkshire Swash';-inkscape-font-specification:'Berkshire Swash, Normal'"
           id="path5980" />
        <path
           d="m 61.447266,54.710621 q 0,-0.292969 -0.1875,-0.445313 -0.1875,-0.152343 -0.480469,-0.152343 -0.410156,0 -0.785156,0.1875 -0.363282,0.1875 -0.644532,0.550781 -0.28125,0.363281 -0.445312,0.902344 -0.164063,0.527343 -0.164063,1.230468 0,0.679688 0.09375,1.125 0.105469,0.445313 0.269532,0.714844 0.175781,0.257813 0.398437,0.363281 0.222656,0.105469 0.46875,0.105469 0.304688,0 0.574219,-0.152344 0.269531,-0.164062 0.46875,-0.410156 0.199219,-0.246094 0.316406,-0.550781 0.117188,-0.304688 0.117188,-0.609375 z m -1.863282,-5.132813 q -0.398437,0 -0.738281,0.09375 -0.339844,0.09375 -0.585937,0.234375 -0.246094,0.140625 -0.386719,0.316407 -0.140625,0.164062 -0.140625,0.316406 0,0.175781 0.175781,0.257812 0.1875,0.07031 0.410156,0.175782 0.222657,0.09375 0.398438,0.28125 0.1875,0.175781 0.1875,0.550781 0,0.246094 -0.105469,0.457031 -0.09375,0.199219 -0.269531,0.363281 -0.164063,0.152344 -0.398438,0.246094 -0.222656,0.08203 -0.46875,0.08203 -0.65625,0 -1.066406,-0.445312 -0.398437,-0.445313 -0.398437,-1.183594 0,-0.714844 0.375,-1.21875 0.375,-0.515625 0.972656,-0.84375 0.609375,-0.328125 1.371094,-0.480469 0.761718,-0.164062 1.523437,-0.164062 0.914063,0 1.746094,0.199219 0.832031,0.199218 1.464844,0.632812 0.644531,0.433594 1.019531,1.101563 0.386719,0.667968 0.386719,1.617187 v 6.621094 q 0,0.105469 0.01172,0.234375 0.01172,0.128906 0.05859,0.234375 0.04687,0.105469 0.140625,0.175781 0.09375,0.07031 0.269531,0.07031 0.210938,0 0.386719,-0.152344 0.1875,-0.164063 0.328125,-0.328125 l 0.292969,0.246094 q -0.175781,0.246093 -0.421875,0.539062 -0.246094,0.292969 -0.597656,0.550781 -0.351563,0.257813 -0.820313,0.433594 -0.46875,0.175781 -1.066406,0.175781 -0.738281,0 -1.3125,-0.433593 -0.574219,-0.445313 -0.75,-1.359375 -0.375,0.503906 -0.785156,0.84375 -0.398438,0.339843 -0.820313,0.550781 -0.421875,0.210937 -0.855469,0.304687 -0.421875,0.09375 -0.855468,0.09375 -0.5625,0 -1.089844,-0.175781 -0.527344,-0.175781 -0.949219,-0.550781 -0.410156,-0.386719 -0.667969,-0.996094 -0.246093,-0.609375 -0.246093,-1.488281 0,-1.066406 0.421875,-1.746094 0.421875,-0.679687 1.101562,-1.136719 0.691406,-0.46875 1.558594,-0.796875 0.878906,-0.328125 1.792969,-0.691406 0.679687,-0.269531 0.984375,-0.796875 0.316406,-0.539062 0.316406,-1.101562 0,-0.867188 -0.515625,-1.382813 -0.503906,-0.527344 -1.382813,-0.527344 z m -2.238281,-4.160156 q 0,-0.257812 0.09375,-0.480469 0.105469,-0.234375 0.28125,-0.410156 0.175781,-0.175781 0.398438,-0.269531 0.234375,-0.105469 0.492187,-0.105469 0.257813,0 0.492188,0.105469 0.234375,0.09375 0.410156,0.269531 0.175781,0.175781 0.269531,0.410156 0.105469,0.222657 0.105469,0.480469 0,0.269531 -0.105469,0.503906 -0.09375,0.222657 -0.269531,0.398438 -0.175781,0.175781 -0.410156,0.28125 -0.234375,0.09375 -0.492188,0.09375 -0.257812,0 -0.492187,-0.09375 -0.222657,-0.105469 -0.398438,-0.28125 -0.175781,-0.175781 -0.28125,-0.398438 -0.09375,-0.234375 -0.09375,-0.503906 z m 4.125,0 q 0,-0.257812 0.09375,-0.480469 0.105469,-0.234375 0.28125,-0.410156 0.175781,-0.175781 0.398438,-0.269531 0.234375,-0.105469 0.503906,-0.105469 0.257812,0 0.480469,0.105469 0.234375,0.09375 0.410156,0.269531 0.175781,0.175781 0.269531,0.410156 0.105469,0.222657 0.105469,0.480469 0,0.269531 -0.105469,0.503906 -0.09375,0.222657 -0.269531,0.398438 -0.175781,0.175781 -0.410156,0.28125 -0.222657,0.09375 -0.480469,0.09375 -0.269531,0 -0.503906,-0.09375 -0.222657,-0.105469 -0.398438,-0.28125 -0.175781,-0.175781 -0.28125,-0.398438 -0.09375,-0.234375 -0.09375,-0.503906 z"
           style="font-size:24px;font-family:'Berkshire Swash';-inkscape-font-specification:'Berkshire Swash, Normal'"
           id="path5982" />
        <path
           d="m 71.615234,51.089527 q 0.445313,-0.679687 0.949219,-1.230469 0.210938,-0.234375 0.457031,-0.457031 0.246094,-0.222656 0.503907,-0.398437 0.269531,-0.175782 0.550781,-0.28125 0.28125,-0.105469 0.5625,-0.105469 0.597656,0 0.9375,0.363281 0.339844,0.351563 0.339844,0.996094 0,0.398437 -0.07031,0.773437 -0.05859,0.363282 -0.246094,0.890625 h -0.328125 q -0.07031,-0.363281 -0.328125,-0.597656 -0.257812,-0.246094 -0.75,-0.246094 -0.363281,0 -0.714843,0.140625 -0.351563,0.128907 -0.691407,0.328125 -0.328125,0.199219 -0.632812,0.433594 -0.292969,0.234375 -0.539063,0.445313 v 7.605468 q 0,0.152344 -0.04687,0.363282 -0.04687,0.210937 -0.234375,0.398437 -0.175781,0.1875 -0.539062,0.316406 -0.351563,0.140625 -0.972656,0.140625 -0.621094,0 -0.984375,-0.152343 -0.351563,-0.140625 -0.539063,-0.339844 -0.1875,-0.199219 -0.234375,-0.410156 -0.04687,-0.210938 -0.04687,-0.339844 v -9.046875 q 0,-0.339844 -0.164062,-0.585938 -0.152344,-0.257812 -0.527344,-0.257812 -0.199219,0 -0.339844,0.07031 -0.140625,0.07031 -0.304687,0.199219 L 66.43556,49.812181 q 0.269531,-0.222656 0.597656,-0.433593 0.339844,-0.222657 0.726563,-0.386719 0.386718,-0.164063 0.832031,-0.269531 0.445312,-0.105469 0.9375,-0.105469 0.503906,0 0.855469,0.140625 0.363281,0.128906 0.585937,0.351562 0.234375,0.210938 0.363281,0.480469 0.128907,0.269531 0.1875,0.550781 0.07031,0.269532 0.08203,0.527344 0.01172,0.246094 0.01172,0.421875 z"
           style="font-size:24px;font-family:'Berkshire Swash';-inkscape-font-specification:'Berkshire Swash, Normal'"
           id="path5984" />
        <path
           d="m 82.193359,54.710621 q 0,-0.292969 -0.1875,-0.445313 -0.1875,-0.152343 -0.480468,-0.152343 -0.410157,0 -0.785157,0.1875 -0.363281,0.1875 -0.644531,0.550781 -0.28125,0.363281 -0.445312,0.902344 -0.164063,0.527343 -0.164063,1.230468 0,0.679688 0.09375,1.125 0.105469,0.445313 0.269531,0.714844 0.175782,0.257813 0.398438,0.363281 0.222656,0.105469 0.46875,0.105469 0.304687,0 0.574219,-0.152344 0.269531,-0.164062 0.46875,-0.410156 0.199218,-0.246094 0.316406,-0.550781 0.117187,-0.304688 0.117187,-0.609375 z m -1.863281,-5.132813 q -0.398437,0 -0.738281,0.09375 -0.339844,0.09375 -0.585938,0.234375 -0.246093,0.140625 -0.386718,0.316407 -0.140625,0.164062 -0.140625,0.316406 0,0.175781 0.175781,0.257812 0.1875,0.07031 0.410156,0.175782 0.222656,0.09375 0.398438,0.28125 0.1875,0.175781 0.1875,0.550781 0,0.246094 -0.105469,0.457031 -0.09375,0.199219 -0.269531,0.363281 -0.164063,0.152344 -0.398438,0.246094 -0.222656,0.08203 -0.46875,0.08203 -0.65625,0 -1.066406,-0.445312 -0.398438,-0.445313 -0.398438,-1.183594 0,-0.714844 0.375,-1.21875 0.375,-0.515625 0.972657,-0.84375 0.609375,-0.328125 1.371093,-0.480469 0.761719,-0.164062 1.523438,-0.164062 0.914062,0 1.746094,0.199219 0.832031,0.199218 1.464843,0.632812 0.644532,0.433594 1.019532,1.101563 0.386718,0.667968 0.386718,1.617187 v 6.621094 q 0,0.105469 0.01172,0.234375 0.01172,0.128906 0.05859,0.234375 0.04687,0.105469 0.140625,0.175781 0.09375,0.07031 0.269531,0.07031 0.210938,0 0.386719,-0.152344 0.1875,-0.164063 0.328125,-0.328125 l 0.292969,0.246094 q -0.175782,0.246093 -0.421875,0.539062 -0.246094,0.292969 -0.597657,0.550781 -0.351562,0.257813 -0.820312,0.433594 -0.46875,0.175781 -1.066406,0.175781 -0.738282,0 -1.3125,-0.433593 -0.574219,-0.445313 -0.75,-1.359375 -0.375,0.503906 -0.785157,0.84375 -0.398437,0.339843 -0.820312,0.550781 -0.421875,0.210937 -0.855469,0.304687 -0.421875,0.09375 -0.855469,0.09375 -0.5625,0 -1.089843,-0.175781 -0.527344,-0.175781 -0.949219,-0.550781 -0.410156,-0.386719 -0.667969,-0.996094 -0.246094,-0.609375 -0.246094,-1.488281 0,-1.066406 0.421875,-1.746094 0.421875,-0.679687 1.101563,-1.136719 0.691406,-0.46875 1.558594,-0.796875 0.878906,-0.328125 1.792968,-0.691406 0.679688,-0.269531 0.984375,-0.796875 0.316407,-0.539062 0.316407,-1.101562 0,-0.867188 -0.515625,-1.382813 -0.503907,-0.527344 -1.382813,-0.527344 z"
           style="font-size:24px;font-family:'Berkshire Swash';-inkscape-font-specification:'Berkshire Swash, Normal'"
           id="path5986" />
      </g>
      <g
         aria-label="estudio"
         id="text5904"
         style="font-size:10.2687px;font-family:'Asap VF Beta';-inkscape-font-specification:'Asap VF Beta, @wght=131.0';font-variation-settings:'wght' 131;text-align:center;text-anchor:middle;display:inline;fill:url(#linearGradient17);stroke-width:0.197476;paint-order:fill markers stroke;stop-color:#000000"
         transform="translate(0,-25)">
        <path
           d="m 24.171678,39.563674 q 0.811228,0 1.293857,0.369673 0.482629,0.359405 0.698271,0.965258 0.225912,0.605853 0.225912,1.314394 0,0.09242 -0.102687,0.23618 -0.102687,0.143761 -0.23618,0.256717 -0.123225,0.112956 -0.184837,0.112956 h -2.618519 q 0.05134,0.616122 0.359405,0.852302 0.31833,0.225911 0.821496,0.225911 0.328598,0 0.575047,-0.07188 0.256718,-0.08215 0.421017,-0.164299 0.174568,-0.08215 0.246449,-0.08215 0.112955,0 0.23618,0.15403 0.123224,0.154031 0.205374,0.338867 0.09242,0.184837 0.09242,0.287524 0,0.195105 -0.205374,0.338867 -0.195105,0.133493 -0.503166,0.225911 -0.308061,0.09242 -0.616122,0.133493 -0.308061,0.04107 -0.523704,0.04107 -1.396543,0 -2.043471,-0.739346 -0.63666,-0.749615 -0.63666,-1.992128 0,-1.006332 0.31833,-1.622454 0.31833,-0.626391 0.883108,-0.903646 0.564779,-0.277255 1.293856,-0.277255 z m 0,1.201438 q -0.318329,0 -0.575047,0.225911 -0.256717,0.215643 -0.349136,0.811228 h 1.66353 q 0,-0.441554 -0.184837,-0.739347 -0.174568,-0.297792 -0.55451,-0.297792 z"
           id="path5989"
           style="fill:url(#linearGradient10)" />
        <path
           d="m 29.090381,39.563674 q 0.297792,0 0.657197,0.06161 0.359404,0.05134 0.616122,0.184837 0.266986,0.133493 0.266986,0.349136 0,0.112955 -0.07188,0.308061 -0.07188,0.195105 -0.174568,0.349135 -0.09242,0.154031 -0.195105,0.154031 -0.08215,0 -0.308061,-0.102687 -0.215643,-0.112956 -0.575047,-0.112956 -0.256718,0 -0.40048,0.08215 -0.143762,0.08215 -0.143762,0.277255 0,0.225911 0.174568,0.359404 0.174568,0.123225 0.441554,0.225912 0.277255,0.09242 0.544242,0.225911 0.225911,0.112956 0.431285,0.287524 0.205374,0.174567 0.328598,0.451822 0.133493,0.277255 0.133493,0.677735 0,0.523703 -0.23618,0.924183 -0.23618,0.39021 -0.688003,0.616122 -0.441554,0.215642 -1.088482,0.215642 -0.379942,0 -0.780421,-0.08215 -0.39021,-0.08215 -0.657197,-0.23618 -0.266986,-0.154031 -0.266986,-0.379942 0,-0.133493 0.09242,-0.31833 0.09242,-0.184837 0.215643,-0.328598 0.133493,-0.143762 0.23618,-0.143762 0.08215,0 0.215643,0.07188 0.143762,0.07188 0.338867,0.143761 0.205374,0.07188 0.482629,0.07188 0.595584,0 0.595584,-0.431285 0,-0.297792 -0.266986,-0.421017 -0.266986,-0.123224 -0.616122,-0.256717 -0.256717,-0.09242 -0.523703,-0.256718 -0.266987,-0.164299 -0.462092,-0.462091 -0.184836,-0.308061 -0.184836,-0.821496 0,-0.533973 0.225911,-0.903646 0.23618,-0.379942 0.657197,-0.575047 0.421016,-0.205374 0.985795,-0.205374 z"
           id="path5991"
           style="fill:url(#linearGradient11)" />
        <path
           d="m 32.81792,38.341699 q 0.513435,0 0.513435,0.328598 v 0.975527 h 0.503167 q 0.308061,0 0.308061,0.513435 v 0.174568 q 0,0.513435 -0.308061,0.513435 h -0.503167 v 2.608249 q 0,0.225912 0.08215,0.338867 0.09242,0.102687 0.287523,0.102687 0.07188,0 0.154031,-0.02054 0.08215,-0.02054 0.123224,-0.02054 0.102687,0 0.174568,0.174567 0.07188,0.1643 0.102687,0.349136 0.04107,0.174568 0.04107,0.215643 0,0.23618 -0.184837,0.349136 -0.174567,0.102687 -0.410748,0.123224 -0.23618,0.03081 -0.39021,0.03081 -0.359405,0 -0.646928,-0.09242 -0.277255,-0.102687 -0.47236,-0.308061 -0.184837,-0.205374 -0.287524,-0.513435 -0.09242,-0.31833 -0.09242,-0.749615 v -2.587712 h -0.164299 q -0.308061,0 -0.308061,-0.513435 v -0.174568 q 0,-0.513435 0.308061,-0.513435 h 0.164299 l 0.133493,-0.975527 q 0.05134,-0.328598 0.55451,-0.328598 z"
           id="path5993"
           style="fill:url(#linearGradient12)" />
        <path
           d="m 38.999687,39.625286 q 0.616122,0 0.616122,0.328599 v 3.255177 q 0,0.533973 0.03081,0.821496 0.03081,0.277255 0.06161,0.421017 0.03081,0.133493 0.03081,0.246449 0,0.09242 -0.143761,0.15403 -0.133494,0.06161 -0.338868,0.102687 -0.195105,0.04107 -0.39021,0.06161 -0.184837,0.01027 -0.277255,0.01027 -0.164299,0 -0.246449,-0.112955 -0.07188,-0.123225 -0.102687,-0.287524 -0.03081,-0.164299 -0.06161,-0.308061 -0.225911,0.287524 -0.626391,0.533972 -0.400479,0.246449 -0.903645,0.246449 -0.770153,0 -1.139826,-0.400479 -0.369673,-0.410748 -0.369673,-1.26305 v -3.481089 q 0,-0.328599 0.616122,-0.328599 h 0.287523 q 0.616122,0 0.616122,0.328599 v 3.255177 q 0,0.297793 0.133494,0.472361 0.143761,0.164299 0.482628,0.164299 0.31833,0 0.523704,-0.205374 0.205374,-0.215643 0.297792,-0.390211 v -3.296252 q 0,-0.328599 0.616122,-0.328599 z"
           id="path5995"
           style="fill:url(#linearGradient13)" />
        <path
           d="m 44.801493,37.273754 q 0.616122,0 0.616122,0.328598 v 5.60671 q 0,0.533973 0.03081,0.821496 0.03081,0.277255 0.06161,0.421017 0.03081,0.133493 0.03081,0.246449 0,0.09242 -0.143762,0.15403 -0.133493,0.06161 -0.338867,0.102687 -0.195105,0.04107 -0.390211,0.06161 -0.184836,0.01027 -0.277255,0.01027 -0.164299,0 -0.246448,-0.112955 -0.07188,-0.123225 -0.102687,-0.287524 -0.03081,-0.164299 -0.06161,-0.297792 -0.174567,0.328598 -0.533972,0.55451 -0.359404,0.215642 -0.842033,0.215642 -0.55451,0 -0.996064,-0.318329 -0.431286,-0.31833 -0.677734,-0.934452 -0.246449,-0.626391 -0.246449,-1.519768 0,-1.252781 0.564778,-2.002396 0.564779,-0.759884 1.601918,-0.759884 0.359404,0 0.616122,0.102687 0.266986,0.102687 0.431285,0.215643 v -2.279652 q 0,-0.328598 0.616122,-0.328598 z m -1.622454,3.491358 q -0.482629,0 -0.718809,0.400479 -0.23618,0.390211 -0.23618,1.160363 0,0.749615 0.205374,1.139826 0.205374,0.390211 0.626391,0.390211 0.297792,0 0.503166,-0.184837 0.205374,-0.184837 0.338867,-0.421017 v -2.28992 q -0.123224,-0.07188 -0.308061,-0.133493 -0.174568,-0.06161 -0.410748,-0.06161 z"
           id="path5997"
           style="fill:url(#linearGradient14)" />
        <path
           d="m 47.563779,39.625286 q 0.616122,0 0.616122,0.328599 v 4.754408 q 0,0.328598 -0.616122,0.328598 h -0.287523 q -0.616122,0 -0.616122,-0.328598 v -4.754408 q 0,-0.328599 0.616122,-0.328599 z m 0,-2.351532 q 0.616122,0 0.616122,0.328598 v 0.831765 q 0,0.328599 -0.616122,0.328599 h -0.287523 q -0.616122,0 -0.616122,-0.328599 v -0.831765 q 0,-0.328598 0.616122,-0.328598 z"
           id="path5999"
           style="fill:url(#linearGradient15)" />
        <path
           d="m 51.702059,39.563674 q 1.221975,0 1.848366,0.718809 0.636659,0.70854 0.636659,2.043471 0,1.334931 -0.636659,2.05374 -0.626391,0.718809 -1.848366,0.718809 -1.221976,0 -1.858635,-0.718809 -0.636659,-0.718809 -0.636659,-2.05374 0,-1.334931 0.636659,-2.043471 0.636659,-0.718809 1.858635,-0.718809 z m 0,1.201438 q -0.492898,0 -0.729078,0.400479 -0.225911,0.390211 -0.225911,1.160363 0,0.770153 0.225911,1.170632 0.23618,0.400479 0.729078,0.400479 0.492897,0 0.718809,-0.400479 0.225911,-0.400479 0.225911,-1.170632 0,-0.770152 -0.225911,-1.160363 -0.225912,-0.400479 -0.718809,-0.400479 z"
           id="path6001"
           style="fill:url(#linearGradient16)" />
      </g>
    </g>
  </g>
  <g
     inkscape:groupmode="layer"
     id="g5974"
     inkscape:label="Claro sobre oscuro (texto)"
     style="display:none">
    <g
       inkscape:groupmode="layer"
       id="g5962"
       inkscape:label="Fondo oscuro">
      <rect
         style="font-variation-settings:'wght' 131;fill:#333332;fill-opacity:1;stroke:none;stroke-width:0.353553;stroke-linecap:round;stroke-linejoin:round;paint-order:markers fill stroke;stop-color:#000000"
         id="rect5960"
         width="100"
         height="50"
         x="0"
         y="0" />
    </g>
    <g
       inkscape:label="Texto claro"
       inkscape:groupmode="layer"
       id="g5972">
      <text
         xml:space="preserve"
         style="font-style:normal;font-variant:normal;font-weight:normal;font-stretch:normal;font-size:7.8px;font-family:'AR PL KaitiM GB';-inkscape-font-specification:'AR PL KaitiM GB, Normal';font-variant-ligatures:normal;font-variant-caps:normal;font-variant-numeric:normal;font-variant-east-asian:normal;text-align:center;letter-spacing:-0.25px;text-anchor:middle;fill:#f6f6f0;fill-opacity:1;stroke:none;stroke-width:0.15;stroke-dasharray:none;stroke-opacity:1;paint-order:fill markers stroke;stop-color:#000000"
         x="50.105469"
         y="35.780933"
         id="text5966"><tspan
           sodipodi:role="line"
           id="tspan5964"
           x="49.980469"
           y="35.780933"
           style="font-style:normal;font-variant:normal;font-weight:normal;font-stretch:normal;font-size:24px;font-family:'Berkshire Swash';-inkscape-font-specification:'Berkshire Swash, Normal';font-variant-ligatures:normal;font-variant-caps:normal;font-variant-numeric:normal;font-variant-east-asian:normal;fill:#f6f6f0;fill-opacity:1">hawära</tspan></text>
      <text
         xml:space="preserve"
         style="font-style:normal;font-variant:normal;font-weight:normal;font-stretch:normal;font-size:10.2687px;font-family:'Asap VF Beta';-inkscape-font-specification:'Asap VF Beta, @wght=131.0';font-variant-ligatures:normal;font-variant-caps:normal;font-variant-numeric:normal;font-variant-east-asian:normal;font-variation-settings:'wght' 131;text-align:center;text-anchor:middle;display:inline;fill:url(#linearGradient4952);fill-opacity:1;stroke:none;stroke-width:0.197476;stroke-dasharray:none;stroke-opacity:1;paint-order:fill markers stroke;stop-color:#000000"
         x="37.931736"
         y="20.016352"
         id="text5970"><tspan
           sodipodi:role="line"
           id="tspan5968"
           x="37.931736"
           y="20.016352"
           style="font-style:normal;font-variant:normal;font-weight:normal;font-stretch:normal;font-size:10.2687px;font-family:'Asap VF Beta';-inkscape-font-specification:'Asap VF Beta, @wght=131.0';font-variant-ligatures:normal;font-variant-caps:normal;font-variant-numeric:normal;font-variant-east-asian:normal;font-variation-settings:'wght' 131;fill:url(#linearGradient4952);fill-opacity:1;stroke-width:0.197476">estudio</tspan></text>
    </g>
  </g>
</svg>
